<svg width="726" height="67" viewBox="0 0 726 67" fill="none" xmlns="http://www.w3.org/2000/svg">
<path fill-rule="evenodd" clip-rule="evenodd" d="M191.255 64.1832C191.843 61.6173 191.709 62.5524 194.169 61.7373C188.919 60.1408 177.504 62.4679 169.93 63.1654C160.333 64.0491 156.29 63.0117 148.607 66.3406C144.039 64.0834 128.852 66.0014 122.027 66.1992L129.032 64.5665C134.619 63.8513 139.582 61.038 145.991 61.3429C129.493 59.8463 117.113 62.4556 102.039 61.4685C107.979 57.0005 124.955 59.6264 131.876 56.5963L112.853 55.7659C102.216 55.0739 98.5482 56.1217 88.6725 55.8314C78.8865 55.5442 78.0644 53.3304 66.0473 54.0965C56.1486 54.7273 48.2698 55.0898 38.3923 54.7089C39.7753 53.6042 39.2086 53.9588 40.8527 52.8803C42.4005 51.8644 41.2816 52.677 42.8747 51.805C24.8823 49.2293 19.8323 51.925 12.5289 49.7933L19.0419 47.4674C17.1606 46.8942 17.7997 48.5575 16.7858 46.7467C16.6056 46.4258 16.0726 46.4711 15.7352 46.3143C20.2601 44.8348 20.3131 45.8397 25.0249 45.8207L21.2913 41.7477C21.1487 41.3644 20.6177 41.3693 20.4076 41.5187L36.5158 38.8401C19.12 30.587 21.6383 36.183 9.70886 36.0225L7.28986 32.3574C28.0694 24.8372 28.2921 28.3799 33.4858 26.7779C30.1473 23.7166 28.7537 25.8612 28.7181 25.863L17.4267 26.7454L24.5247 23.9095C16.459 23.5635 12.3198 24.0393 3.83771 24.7209C4.25403 24.6198 4.81305 24.5696 5.12817 24.4968C5.4549 24.4208 6.0697 24.3412 6.45911 24.2408C6.8783 24.1324 7.44214 24.0362 7.86615 23.915C12.205 22.6731 8.86749 23.8801 12.0585 22.1819L0 22.2193C7.63489 20.5242 17.0913 20.3313 25.3844 18.4568C33.3672 16.6527 41.7249 15.7843 52.173 15.3905C50.7756 14.0335 51.4059 13.197 48.3151 12.9863C41.8955 12.5491 51.4617 12.3494 46.7924 13.3813L45.0441 14.2056C39.8543 12.7928 33.2188 15.107 28.3643 13.0065L48.5772 11.0971C46.8145 9.1797 50.4681 10.7266 53.1349 9.35178C55.1964 10.7566 54.6932 7.28375 55.4421 12.1896C56.5533 9.08049 55.5375 10.5067 57.4901 9.85639L60.2985 9.52631C60.5538 9.51468 61.1119 9.51468 61.3596 9.51406C65.7784 9.49692 61.4106 11.1528 65.0219 9.31136C70.0488 6.74791 83.3506 7.75406 90.1326 7.48645C87.8813 8.64202 88.2205 7.96656 88.7429 9.1105L108.154 7.95921C110.387 5.17101 110.534 7.8845 114.147 5.2298C166.549 4.54576 216.77 -1.09801 270.138 0.236994L289.355 0C315.545 2.03619 477.422 0.608714 489.357 4.35592L450.409 4.23466C451.224 4.49309 450.972 4.71661 454.316 5.29042C454.825 5.37799 456.37 5.53293 456.916 5.58192C458.453 5.72154 460.799 5.71481 462.488 5.7687L502.094 5.41281C504.87 7.28855 502.987 6.26525 506.399 7.95606C516.727 5.55978 572.439 9.15065 590.273 8.39802C607.065 7.68949 625.538 9.40663 641.481 11.1513C643.024 12.8017 642.904 11.4465 641.633 13.618C647.112 14.4919 644.942 14.4962 651.007 15.28C646.278 16.4362 649.2 15.2739 648.068 17.819C655.908 20.5821 668.377 20.3806 678.29 20.7462C698.647 21.497 689.721 22.2239 698.061 27.6362C692.933 28.112 686.137 25.4904 679.358 25.1695C672.351 24.8376 662.927 23.11 658.137 25.4984C662.218 26.6319 663.35 26.074 667.84 26.7495L656.5 26.8248C659.645 28.5787 654.163 26.5964 660.574 28.8279C666.493 30.888 687.332 30.6767 694.751 30.6571L694.723 30.8537C698.688 33.2383 697.187 28.1188 698.122 34.6976C698.847 34.4288 695.995 32.8746 700.963 34.7093C705.619 36.4295 706.388 40.1161 707.409 43.0543C694.956 41.9936 684.813 40.3586 671.161 39.5545C657.171 38.7302 661.09 40.8668 647.586 39.0578C640.1 38.0548 641.418 38.9752 640.097 39.3359C644.933 40.165 649.979 40.1853 655.298 41.3231C659.054 42.1265 663.263 42.8504 668.395 43.2478C686.795 44.6735 709.446 41.4155 717.494 54.2034C719.922 58.0596 723.472 60.3806 724.934 63.8865L726 66.9821C719.599 66.5884 720.152 65.4708 716.868 64.9147L711.17 64.5032C700.258 64.0776 693.472 62.2227 685.881 62.0224C676.539 61.7762 672.35 62.625 661.529 61.9924C644.847 61.0169 628.393 60.3083 611.411 59.9587C592.74 59.5741 578.467 58.6653 561.26 58.2225C543.578 57.7675 525.553 60.0868 507.847 59.8113L506.014 58.6906C505.817 58.5706 505.386 58.2938 505.195 58.178C500.798 55.5062 484.317 57.4837 481.255 57.5957L445.351 57.4347C425.659 56.3256 405.212 57.7721 381.627 57.7917C371.817 57.8003 358.042 58.3588 349.59 59.9651L190.699 66.0136C174.984 66.8048 175.184 67.029 172.331 64.4759C179.769 63.7998 183.229 62.8604 191.255 64.1856V64.1832Z" fill="url(#paint0_linear_155_565)"/>
<defs>
<linearGradient id="paint0_linear_155_565" x1="710.443" y1="23.7628" x2="6.17537" y2="101.189" gradientUnits="userSpaceOnUse">
<stop stop-color="#20A5D6"/>
<stop offset="1" stop-color="#8C48F1"/>
</linearGradient>
</defs>
</svg>
