<svg width="176" height="177" viewBox="0 0 176 177" fill="none" xmlns="http://www.w3.org/2000/svg">
<path d="M147.934 170.109C148.56 169.736 148.765 168.926 148.392 168.3L142.312 158.098C141.939 157.472 141.129 157.267 140.503 157.64C139.877 158.013 139.672 158.823 140.045 159.449L145.45 168.517L136.381 173.922C135.755 174.295 135.55 175.105 135.923 175.731C136.296 176.357 137.106 176.562 137.732 176.189L147.934 170.109ZM104.283 115.414L105.565 115.725L104.283 115.414ZM86.1978 69.0341C85.4798 68.9096 84.7967 69.3907 84.6721 70.1088C84.5476 70.8269 85.0287 71.5099 85.7468 71.6345L86.1978 69.0341ZM85.7468 71.6345C86.5116 71.7671 87.3386 71.9715 88.2058 72.2568L89.0306 69.7498C88.0469 69.4261 87.095 69.1897 86.1978 69.0341L85.7468 71.6345ZM92.8527 74.4504C94.228 75.3092 95.6006 76.3709 96.9011 77.6602L98.7592 75.786C97.3137 74.3529 95.7855 73.1702 94.2506 72.2118L92.8527 74.4504ZM100.164 81.6772C101.058 83.0512 101.869 84.5886 102.56 86.3035L105.008 85.3178C104.254 83.4449 103.364 81.7554 102.376 80.2374L100.164 81.6772ZM104.092 91.3171C104.445 92.9325 104.704 94.669 104.847 96.5337L107.478 96.3312C107.326 94.3498 107.051 92.4923 106.67 90.7529L104.092 91.3171ZM104.943 101.858C104.881 103.543 104.735 105.315 104.493 107.177L107.11 107.517C107.362 105.578 107.516 103.725 107.581 101.955L104.943 101.858ZM103.594 112.471C103.415 113.332 103.217 114.209 103 115.103L105.565 115.725C105.789 114.803 105.993 113.898 106.178 113.009L103.594 112.471ZM103 115.103C102.774 116.035 102.581 116.956 102.42 117.865L105.019 118.325C105.17 117.471 105.352 116.604 105.565 115.725L103 115.103ZM101.818 123.484C101.749 125.43 101.831 127.317 102.05 129.143L104.67 128.829C104.468 127.139 104.391 125.389 104.455 123.577L101.818 123.484ZM103.177 134.702C103.709 136.546 104.383 138.315 105.178 140.01L107.567 138.889C106.829 137.314 106.204 135.675 105.713 133.971L103.177 134.702ZM107.951 144.938C108.989 146.509 110.131 148.005 111.355 149.425L113.354 147.702C112.198 146.361 111.125 144.955 110.153 143.483L107.951 144.938ZM115.252 153.462C116.621 154.736 118.053 155.937 119.527 157.068L121.133 154.974C119.721 153.89 118.353 152.743 117.05 151.53L115.252 153.462ZM124.092 160.272C125.672 161.288 127.276 162.232 128.883 163.104L130.142 160.785C128.59 159.941 127.042 159.031 125.52 158.052L124.092 160.272ZM133.856 165.586C135.598 166.383 137.317 167.096 138.986 167.728L139.921 165.26C138.305 164.648 136.64 163.957 134.954 163.186L133.856 165.586ZM144.257 169.515C145.181 169.791 146.075 170.037 146.935 170.255L147.583 167.696C146.76 167.488 145.901 167.251 145.012 166.986L144.257 169.515Z" fill="black" fill-opacity="0.62"/>
<rect x="1.15985" y="49.7435" width="126.164" height="50.4309" rx="25.2154" transform="rotate(-22.649 1.15985 49.7435)" stroke="black" stroke-opacity="0.62" stroke-width="1.77352" stroke-dasharray="5.28 5.28"/>
<path d="M42.9004 66.0127C42.466 65.4669 42.028 64.9298 41.5865 64.4012C41.1425 63.8666 40.6881 63.3328 40.2233 62.7997L33.0259 66.1771C33.0444 66.8536 33.0708 67.5233 33.1051 68.1861C33.1393 68.849 33.1821 69.5154 33.2336 70.1853L31.0487 70.7655C30.9472 68.1136 30.9519 65.4601 31.0629 62.8051C31.1799 60.1475 31.3726 57.4833 31.641 54.8125L34.2097 53.7941C36.1328 55.465 37.9827 57.2163 39.7591 59.0482C41.5331 60.8739 43.2535 62.7933 44.9203 64.8064L42.9004 66.0127ZM33.3553 55.8719C33.2285 57.2934 33.1377 58.7069 33.0827 60.1126C33.0253 61.5123 32.9984 62.9169 33.0021 64.3267L39.0477 61.494C38.1485 60.5007 37.2279 59.5413 36.2857 58.6158C35.3436 57.6903 34.3668 56.7757 33.3553 55.8719ZM45.5708 56.0137C45.6638 55.6899 45.7633 55.3561 45.8693 55.0125C45.979 54.6602 46.1139 54.326 46.2741 54.0096C46.4405 53.6908 46.6415 53.4037 46.8771 53.1486C47.1163 52.8849 47.415 52.6783 47.7732 52.5288C48.0282 52.4224 48.2918 52.3623 48.564 52.3485C48.8337 52.3286 49.1011 52.3632 49.3663 52.4521C49.6315 52.541 49.8866 52.6912 50.1316 52.9026C50.3741 53.1079 50.5895 53.385 50.7779 53.7341C50.8673 53.4188 50.9646 53.0967 51.0697 52.7677C51.1783 52.4302 51.3122 52.1106 51.4714 51.8089C51.6342 51.4986 51.8317 51.2202 52.0638 50.9737C52.2934 50.7211 52.5812 50.5226 52.9272 50.3782C53.1944 50.2667 53.4744 50.2034 53.7674 50.188C54.0603 50.1727 54.3445 50.2216 54.6198 50.3348C54.8987 50.4394 55.1652 50.6169 55.4193 50.8673C55.6709 51.1115 55.8889 51.4375 56.0733 51.8453C56.2946 52.2732 56.5611 52.8178 56.8726 53.479C57.1436 54.0431 57.4744 54.7675 57.865 55.6523C58.2591 56.5285 58.7158 57.5888 59.2351 58.8333L57.3699 59.7185C56.9089 58.6136 56.5119 57.6709 56.1791 56.8903C55.8437 56.1037 55.5653 55.4536 55.344 54.9401C55.081 54.3442 54.8642 53.8502 54.6935 53.4581C54.4676 52.9679 54.2311 52.6318 53.9841 52.4497C53.7431 52.2652 53.5073 52.221 53.2766 52.3173C53.1248 52.3806 52.989 52.4907 52.8692 52.6477C52.7554 52.802 52.65 52.985 52.553 53.1966C52.462 53.4056 52.3799 53.6359 52.3066 53.8874C52.2395 54.1364 52.1796 54.3859 52.1271 54.6359C52.0746 54.8859 52.0257 55.1272 51.9803 55.36C51.9348 55.5928 51.8957 55.798 51.8629 55.9756C51.9865 56.2377 52.1215 56.527 52.2679 56.8437C52.4143 57.1604 52.5754 57.5209 52.7512 57.9251C52.9331 58.3267 53.1291 58.7795 53.3394 59.2834C53.5557 59.7847 53.7968 60.3541 54.0628 60.9915L52.3342 61.8197C51.8732 60.7148 51.4671 59.7759 51.1161 59.0029C50.7686 58.2213 50.475 57.5776 50.2354 57.0717C49.9604 56.4808 49.7223 55.9957 49.5212 55.6163C49.2953 55.1261 49.0588 54.79 48.8118 54.6079C48.5708 54.4234 48.335 54.3792 48.1043 54.4755C47.9465 54.5413 47.8072 54.6601 47.6863 54.8317C47.5655 55.0033 47.4542 55.2065 47.3527 55.4413C47.2571 55.6736 47.1748 55.9289 47.1056 56.2073C47.0339 56.4795 46.9695 56.7523 46.9125 57.0256C46.8554 57.2988 46.8037 57.5592 46.7573 57.8067C46.7109 58.0541 46.6695 58.271 46.6331 58.4572L48.7175 63.2219L46.9434 64.0691L42.6129 54.3826L44.4287 53.3791L45.5708 56.0137ZM69.0577 55.1624L68.6495 53.8252C68.1064 54.6078 67.5211 55.2547 66.8934 55.7661C66.2717 56.275 65.6513 56.6586 65.0321 56.9169C64.595 57.0993 64.146 57.219 63.6851 57.2759C63.2327 57.3363 62.8006 57.3171 62.3887 57.2181C61.9803 57.1105 61.6042 56.9182 61.2605 56.6411C60.9203 56.3553 60.6476 55.9666 60.4424 55.4749C60.2373 54.9832 60.1265 54.5126 60.11 54.0633C60.0936 53.614 60.1508 53.1874 60.2817 52.7835C60.4125 52.3797 60.6067 51.9993 60.864 51.6425C61.1214 51.2856 61.4195 50.9581 61.7584 50.6599C62.1033 50.3591 62.4817 50.0872 62.8934 49.8441C63.3027 49.595 63.7228 49.3804 64.1538 49.2006C64.5545 49.0334 64.9342 48.8928 65.2929 48.7788C65.6516 48.6647 65.9746 48.5763 66.262 48.5134C66.0564 48.2428 65.8352 47.9858 65.5982 47.7426C65.3588 47.4932 65.0998 47.2912 64.8215 47.1365C64.5466 46.9732 64.2483 46.8732 63.9264 46.8364C63.6046 46.7996 63.2616 46.8572 62.8973 47.0092C62.6606 47.108 62.4056 47.2572 62.1325 47.4567C61.8568 47.6501 61.5748 47.9139 61.2866 48.248C60.9983 48.5821 60.7058 48.9999 60.4091 49.5015C60.1098 49.9971 59.8181 50.5963 59.5341 51.2993L57.8737 50.4205C58.2285 49.6309 58.6008 48.9517 58.9907 48.3827C59.3805 47.8138 59.7686 47.3347 60.155 46.9454C60.5449 46.5474 60.925 46.2285 61.2953 45.9884C61.6716 45.7459 62.0207 45.5575 62.3424 45.4232C62.9009 45.1902 63.4393 45.0796 63.9574 45.0915C64.473 45.0973 64.9644 45.1987 65.4316 45.3958C65.9022 45.5843 66.3436 45.8563 66.7557 46.2118C67.1713 46.5587 67.5596 46.9598 67.9206 47.415C68.2791 47.8642 68.6039 48.3523 68.8952 48.8794C69.1924 49.404 69.4551 49.9395 69.6831 50.4858C69.9262 51.0686 70.1538 51.7078 70.3656 52.4035C70.5775 53.0991 70.7782 53.8707 70.9679 54.7181L69.0577 55.1624ZM67.9296 51.7413C67.8151 51.4327 67.6988 51.1284 67.5808 50.8284C67.4627 50.5284 67.3184 50.2252 67.1477 49.9186C66.8122 49.9517 66.4692 50.0093 66.1186 50.0914C65.768 50.1736 65.4287 50.283 65.1009 50.4198C64.5546 50.6478 64.05 50.9332 63.5871 51.276C63.1304 51.6163 62.7675 51.9851 62.4985 52.3824C62.2295 52.7798 62.0744 53.1938 62.0331 53.6244C61.9979 54.0525 62.1287 54.4684 62.4254 54.872C62.6624 55.2008 62.9327 55.3873 63.2363 55.4317C63.546 55.4736 63.8739 55.4223 64.2199 55.2779C64.572 55.131 64.9274 54.915 65.286 54.6299C65.6481 54.3363 65.9941 54.0209 66.3238 53.6837C66.6571 53.3379 66.9623 52.9932 67.2394 52.6495C67.5165 52.3057 67.7466 52.003 67.9296 51.7413ZM81.7819 49.5537L73.1502 53.5937L72.1179 51.8113L76.0404 42.8402L70.1306 45.5627L69.3525 43.7491L77.4803 40.0903L78.4505 42.0056L74.4718 50.8932L80.9529 47.772L81.7819 49.5537ZM81.1461 35.1929C81.2196 35.369 81.2528 35.5511 81.2458 35.7393C81.2449 35.925 81.2078 36.1009 81.1345 36.2669C81.0673 36.4304 80.9687 36.5784 80.8387 36.7111C80.7087 36.8437 80.5527 36.948 80.3706 37.024C80.1945 37.0975 80.0136 37.1337 79.8279 37.1328C79.6483 37.1294 79.4737 37.0953 79.3042 37.0306C79.1407 36.9634 78.9926 36.8648 78.86 36.7348C78.7274 36.6049 78.6243 36.4519 78.5509 36.2758C78.4749 36.0937 78.4373 35.9098 78.4382 35.7241C78.4392 35.5384 78.4732 35.3638 78.5404 35.2003C78.6112 35.0282 78.7085 34.8771 78.8324 34.747C78.9599 34.6083 79.1116 34.5022 79.2877 34.4288C79.4698 34.3528 79.655 34.3183 79.8432 34.3253C80.0289 34.3262 80.2048 34.3633 80.3708 34.4366C80.5403 34.5013 80.6914 34.5986 80.8241 34.7286C80.9628 34.856 81.0701 35.0108 81.1461 35.1929ZM82.0556 38.5768C82.3996 39.4526 82.7145 40.2585 83.0003 40.9945C83.2896 41.722 83.5523 42.3858 83.7884 42.9858C84.0245 43.5858 84.2352 44.1251 84.4207 44.6036C84.6096 45.0736 84.7746 45.4859 84.9154 45.8406C85.2468 46.6859 85.5125 47.3484 85.7126 47.828L83.8459 48.6069C83.5844 47.9462 83.2741 47.1598 82.9149 46.2476C82.6028 45.4655 82.2215 44.5091 81.7711 43.3784C81.3268 42.2452 80.8034 40.9311 80.201 39.4362L82.0556 38.5768ZM88.9509 46.9793C88.4787 45.9503 88.0514 45.0203 87.669 44.1891C87.284 43.3519 86.9401 42.6044 86.6371 41.9468C86.3342 41.2891 86.0672 40.7091 85.8363 40.2068C85.6113 39.7019 85.4155 39.2668 85.2489 38.9016C84.8624 38.0436 84.5756 37.4077 84.3887 36.9939L86.4497 36.0911L87.5804 38.6985C87.6364 38.2689 87.7285 37.8491 87.8568 37.4392C87.9826 37.0232 88.1448 36.6347 88.3435 36.2739C88.5422 35.913 88.7781 35.59 89.0512 35.305C89.3303 35.0175 89.65 34.7843 90.0102 34.6055C90.4589 34.3826 90.876 34.2549 91.2616 34.2223C91.6532 34.1872 92.011 34.2161 92.3349 34.3091C92.6588 34.402 92.9554 34.5491 93.2247 34.7503C93.4914 34.9455 93.7299 35.1668 93.94 35.4141C94.1476 35.6554 94.3278 35.908 94.4808 36.1721C94.6398 36.4336 94.7735 36.6772 94.8819 36.9028C95.354 37.9318 95.8013 38.9782 96.2239 40.0421C96.6464 41.106 97.0824 42.2106 97.5318 43.356L95.6385 44.0712C95.2792 43.0735 94.9139 42.0784 94.5425 41.0858C94.1771 40.0907 93.7625 39.1055 93.2985 38.1301C93.2529 38.0209 93.1855 37.885 93.0964 37.7227C93.0108 37.5517 92.9001 37.3805 92.7644 37.209C92.6348 37.035 92.4852 36.8729 92.3156 36.7227C92.1435 36.5664 91.9555 36.4489 91.7515 36.37C91.545 36.2851 91.3203 36.2506 91.0774 36.2664C90.8406 36.2797 90.5915 36.3658 90.33 36.5248C89.8808 36.7978 89.539 37.3538 89.3046 38.1929C89.0738 39.0234 88.9251 40.1617 88.8586 41.6079C89.2907 42.5751 89.6344 43.3476 89.8897 43.9254C90.1486 44.4945 90.3461 44.9252 90.4824 45.2176C90.6414 45.5647 90.7493 45.7976 90.8061 45.9165L88.9509 46.9793ZM105.367 27.4919L109.678 37.9776C109.837 38.3747 109.949 38.7878 110.014 39.2169C110.081 39.652 110.094 40.0922 110.052 40.5375C110.018 40.9864 109.926 41.4312 109.775 41.872C109.632 42.3164 109.428 42.7402 109.161 43.1437C108.903 43.5506 108.58 43.928 108.19 44.2758C107.803 44.6297 107.349 44.9406 106.826 45.2086C106.102 45.5394 105.378 45.7522 104.655 45.8472C104.345 45.8909 104.018 45.9098 103.673 45.9039C103.335 45.8955 102.99 45.8468 102.64 45.7579C102.291 45.6751 101.947 45.541 101.606 45.3554C101.267 45.176 100.946 44.9284 100.644 44.6129L102.082 43.1146C102.306 43.3275 102.54 43.4939 102.782 43.6137C103.024 43.7335 103.266 43.8179 103.508 43.8668C103.749 43.9158 103.983 43.9392 104.211 43.9371C104.444 43.9324 104.662 43.909 104.866 43.8669C105.349 43.7791 105.824 43.6023 106.291 43.3364C106.68 43.0741 106.993 42.7903 107.229 42.4851C107.471 42.1773 107.656 41.8685 107.784 41.5588C107.913 41.2551 107.994 40.954 108.027 40.6555C108.068 40.3604 108.082 40.0872 108.07 39.8357C108.057 39.5842 108.025 39.3624 107.974 39.1701C107.93 38.9814 107.889 38.8385 107.848 38.7413L107.35 37.5484C107.131 38.0465 106.863 38.4719 106.546 38.8247C106.234 39.169 105.928 39.4533 105.63 39.6776C105.285 39.9429 104.926 40.1601 104.555 40.3293C103.851 40.6232 103.143 40.7723 102.432 40.7767C101.724 40.7872 101.05 40.6585 100.411 40.3906C99.769 40.1167 99.1808 39.7064 98.6462 39.1597C98.1176 38.6104 97.6824 37.926 97.3404 37.1065C96.9959 36.2809 96.8321 35.4868 96.8489 34.7242C96.8632 33.9556 97.0085 33.2534 97.285 32.6178C97.5675 31.9795 97.9521 31.4235 98.4386 30.9496C98.9287 30.4672 99.4712 30.1018 100.066 29.8536C100.499 29.7299 100.953 29.6474 101.428 29.6062C101.834 29.5721 102.288 29.5752 102.789 29.6154C103.291 29.6556 103.794 29.7844 104.298 30.0017L103.56 28.182L105.367 27.4919ZM103.825 38.581C104.226 38.4138 104.585 38.1818 104.904 37.8852C105.222 37.5885 105.481 37.2524 105.68 36.8768C105.883 36.4927 106.019 36.0832 106.087 35.6485C106.153 35.2078 106.138 34.7615 106.042 34.3097L105.544 33.1168C105.297 32.7136 104.991 32.3816 104.626 32.1207C104.258 31.8537 103.863 31.6586 103.441 31.5353C103.019 31.4121 102.584 31.3617 102.137 31.3842C101.697 31.4041 101.276 31.4977 100.875 31.6649C100.438 31.8473 100.073 32.1068 99.7782 32.4434C99.4814 32.774 99.2653 33.1529 99.1299 33.58C99.0005 34.0046 98.9499 34.4641 98.978 34.9584C99.0122 35.4502 99.1331 35.945 99.3408 36.4428C99.5485 36.9406 99.8157 37.3673 100.142 37.7229C100.469 38.0784 100.829 38.3523 101.223 38.5443C101.62 38.7278 102.039 38.8273 102.481 38.8427C102.928 38.8557 103.376 38.7684 103.825 38.581Z" fill="black" fill-opacity="0.62"/>
</svg>
