<svg width="34" height="98" viewBox="0 0 34 98" fill="none" xmlns="http://www.w3.org/2000/svg">
<path d="M16.8128 2C26.8025 7.54986 38.8978 19.5837 28.7548 31.2482C23.1385 37.7069 7.15604 41.1042 2.40402 31.6005C0.705013 28.2027 4.67049 28.1433 6.78929 28.6248C10.637 29.4993 13.7523 32.1772 15.7556 35.516C20.7978 43.9199 12.6825 50.6677 9.45177 57.7164C5.25875 66.8647 4.86111 80.4849 8.35545 89.9403C11.3755 98.1123 11.7049 92.7798 14.1503 87.2778C16.0099 83.0936 13.6869 92.3038 13.1323 93.6208C12.4354 95.2759 12.9965 96.9306 11.4486 95.3827C8.82607 92.7601 5.6971 90.2175 2.71728 87.9826" stroke="#20A5D6" stroke-width="2.38634" stroke-linecap="round" stroke-dasharray="4.77 4.77"/>
</svg>
