<svg width="785" height="77" viewBox="0 0 785 77" fill="none" xmlns="http://www.w3.org/2000/svg">
<path d="M233.546 75.457C233.79 75.3695 233.942 75.282 233.814 75.1883C233.837 75.1883 233.883 75.1883 233.942 75.1883C233.942 75.282 233.942 75.3757 233.942 75.457C233.802 75.457 233.686 75.457 233.546 75.457ZM202.687 75.8068C202.71 75.8068 202.734 75.8068 202.78 75.8068C202.78 75.8193 202.768 75.8193 202.78 75.8193C202.768 75.8193 202.722 75.8193 202.687 75.8193C202.687 75.8193 202.687 75.8193 202.687 75.8068ZM25.5898 61.6888C25.4503 61.7138 25.6131 61.7513 25.5317 61.7825C25.4503 61.7513 25.4503 61.7138 25.3573 61.6888C25.4154 61.6888 25.5084 61.6888 25.5898 61.6888ZM13.4624 18.6165C13.4624 18.6915 13.4624 18.6915 13.4624 18.7852C13.2647 18.7102 13.2647 18.7102 13.1136 18.679C13.2531 18.654 13.3345 18.6165 13.4624 18.6165ZM13.3578 14.5935C13.3461 14.5935 13.3927 14.6123 13.3578 14.6123C13.3113 14.6123 13.2647 14.6123 13.2182 14.6123C13.2531 14.5935 13.2996 14.5935 13.3578 14.5935ZM13.5322 10.3769C13.4973 10.3769 13.474 10.4019 13.4043 10.4019L12.9159 10.2957C13.0206 10.3394 13.3461 10.3394 13.5322 10.3769ZM34.6708 8.42161C34.6708 8.4466 34.6243 8.44659 34.6243 8.47158C34.5313 8.47158 34.4267 8.47158 34.2871 8.47158C34.3685 8.44659 34.5662 8.4466 34.6708 8.42161ZM149.829 3.05554C149.55 2.84939 150.201 3.07427 149.736 3.18671C149.654 3.18671 149.561 3.18671 149.492 3.18671C149.782 3.16797 149.945 3.14924 149.829 3.05554ZM209.245 2.2122C209.931 2.2122 210.687 2.16847 211.35 2.2122C210.594 2.18721 209.838 2.2122 209.071 2.2122C209.129 2.2122 209.164 2.2122 209.245 2.2122ZM450.967 1.05029C450.967 1.10026 450.863 1.12523 450.921 1.16896H450.863C450.863 1.16896 450.863 1.16896 450.84 1.16896C450.863 1.16896 450.863 1.16896 450.863 1.16896C450.863 1.12523 450.921 1.07528 450.967 1.05029ZM735.444 45.297C735.479 45.297 735.572 45.297 735.618 45.297C735.397 45.322 735.397 45.3907 735.118 45.4157C735.316 45.3907 735.293 45.322 735.444 45.297ZM735.956 53.6053C735.897 53.5866 735.839 53.5866 735.816 53.5866C735.886 53.5866 735.956 53.5741 736.014 53.5741L735.956 53.6053C735.979 53.5866 736.014 53.5866 736.072 53.5866C736.072 53.6053 736.025 53.5866 735.979 53.6053H735.956ZM723.782 57.5284C723.828 57.5284 723.91 57.5284 723.991 57.5284C723.991 57.5471 724.037 57.5471 724.037 57.5659C723.991 57.5471 723.828 57.5471 723.782 57.5284ZM683.911 64.8122C683.818 64.8122 683.772 64.8122 683.737 64.8122C683.772 64.8122 683.865 64.8122 683.911 64.8122ZM619.181 70.4844C619.205 70.4844 619.321 70.4844 619.356 70.4844C619.356 70.5719 619.356 70.6843 619.379 70.778C619.356 70.778 619.356 70.778 619.356 70.778C619.518 70.6843 619.379 70.5719 619.181 70.4844ZM618.077 71.4839V71.5089H618.112C618.077 71.5089 618.077 71.5089 618.077 71.5089C618.077 71.4839 618.077 71.5089 618.077 71.4839ZM608.717 71.259C608.891 71.259 609.007 71.259 609.182 71.259C609.089 71.2715 609.182 71.309 609.124 71.334C609.007 71.334 608.926 71.3465 608.786 71.3465C608.786 71.334 608.717 71.2715 608.717 71.259ZM595.019 71.259C595.019 71.2715 595.019 71.2715 595.019 71.309C594.973 71.309 595.02 71.2778 594.973 71.2778L595.019 71.2653V71.259ZM546.498 72.6209C546.452 72.5459 546.359 72.4897 546.242 72.421C546.336 72.421 546.405 72.4397 546.498 72.4397L546.359 72.3023C546.44 72.3023 546.568 72.3023 546.684 72.3023C546.661 72.346 546.556 72.396 546.487 72.4397C546.487 72.4897 546.487 72.5459 546.487 72.6209H546.498ZM493.931 71.3028C494.07 71.3028 494.198 71.3028 494.314 71.3028C494.245 71.4777 494.21 71.6776 494.152 71.865C494.966 71.6651 494.396 71.4839 493.931 71.3028ZM332.484 74.1014C332.31 74.0639 332.089 74.0077 331.879 73.9702C332.17 73.9889 332.263 74.0639 332.484 74.1014ZM305.183 73.9889C305.194 73.9889 305.218 73.9889 305.253 73.9889C305.253 73.9889 305.264 73.9889 305.264 74.0077C305.253 74.0077 305.194 73.9889 305.183 73.9889ZM277.428 74.3075C277.603 74.3075 277.789 74.3075 277.951 74.3325C277.858 74.3325 277.754 74.3325 277.696 74.3325H277.475C277.463 74.3325 277.463 74.3075 277.428 74.3075ZM34.2755 71.259C34.4499 71.1841 34.7406 71.1841 34.9615 71.1466C35.7057 71.4215 36.8335 71.5277 38.2637 71.5089C38.2521 71.5277 38.2056 71.5277 38.1823 71.5527C36.8684 71.434 35.5778 71.3402 34.2871 71.2528L34.2755 71.259ZM32.6128 71.9837C32.6011 71.9837 32.6012 71.9837 32.5895 71.9837C32.5895 71.9837 32.6011 71.9837 32.6128 71.9837ZM17.5901 35.3394C17.5785 35.3394 17.5901 35.3394 17.5785 35.3394C16.9623 35.2332 16.0088 35.1208 16.0437 35.0958C16.067 34.9584 15.567 34.9334 15.5553 34.8022C16.2297 34.9834 16.8344 35.1833 17.6018 35.3394H17.5901ZM34.8452 9.31491C33.9964 9.27118 33.3569 9.12751 32.8686 8.9276C33.229 9.17748 34.1708 9.19622 34.8452 9.31491ZM266.929 1.6H266.94H266.929ZM499.407 1.55629C499.628 1.5313 499.965 1.48132 500.128 1.43759C500.128 1.48132 500.163 1.49382 500.082 1.55629C499.861 1.55629 499.663 1.55629 499.407 1.55629ZM587.706 1.55629C587.659 1.55629 587.659 1.55629 587.59 1.55629C587.648 1.55629 587.706 1.55629 587.741 1.55629C587.706 1.55629 587.706 1.55629 587.706 1.55629ZM593.415 5.67298C593.322 5.65424 593.368 5.59802 593.322 5.57928C593.531 5.57928 593.752 5.623 593.95 5.623C593.775 5.64798 593.578 5.64799 593.403 5.66673L593.415 5.67298ZM696.027 6.16647C695.934 6.21645 696.062 6.2477 696.027 6.26019C695.934 6.2477 695.864 6.22269 695.76 6.18521C695.864 6.18521 695.934 6.16647 696.027 6.16647ZM708.724 16.2802C708.701 16.2614 708.619 16.2365 708.561 16.2052C708.724 16.2302 708.898 16.2302 709.073 16.2302C709.003 16.2552 708.829 16.2552 708.712 16.274L708.724 16.2802ZM714.852 30.2795C714.852 30.2795 714.887 30.2795 714.887 30.267C714.91 30.2795 714.968 30.2795 714.968 30.2795C714.91 30.2795 714.887 30.2795 714.84 30.2795H714.852ZM740.909 43.6041C740.909 43.6291 740.944 43.6478 740.944 43.6728C740.909 43.6728 740.909 43.6728 740.909 43.6728C740.874 43.6728 740.827 43.6728 740.769 43.6728C740.862 43.654 740.816 43.6353 740.909 43.6041ZM734.049 52.4872C734.014 52.4872 734.014 52.5059 733.967 52.5059C734.014 52.4872 734.014 52.4872 734.049 52.4872ZM716.503 58.5904C716.468 58.5654 716.363 58.5466 716.294 58.5466C716.422 58.5341 716.584 58.5341 716.747 58.5341C716.747 58.5466 716.526 58.5654 716.503 58.5966V58.5904ZM650.633 70.0971C650.715 70.0971 650.808 70.0971 650.913 70.0971C650.808 70.0971 650.715 70.0971 650.633 70.1096C650.633 70.0971 650.633 70.0971 650.633 70.0971ZM585.02 70.6406C584.846 70.6156 584.671 70.5906 584.543 70.5531C584.683 70.5531 584.845 70.5531 584.985 70.5531C584.938 70.5656 585.02 70.5844 585.02 70.6406ZM529.069 71.6214C529.069 71.6463 529.069 71.6464 529.069 71.6713C529.069 71.6526 529.022 71.6526 528.987 71.6214C529.022 71.6214 529.069 71.6214 529.069 71.6214ZM510.209 70.1159C510.174 70.1346 510.139 70.1596 510.081 70.1596C510.081 70.1596 510.081 70.1346 510.035 70.1159C510.128 70.1159 510.174 70.1159 510.209 70.1159ZM232.209 73.1706C232.139 73.1956 232.116 73.1956 232.035 73.2143C232.058 73.1956 232.035 73.1956 232.035 73.1706C232.104 73.1706 232.174 73.1706 232.209 73.1706ZM103.97 68.9352C103.947 68.9539 103.854 68.9539 103.807 68.9789C103.784 68.9539 103.773 68.9539 103.714 68.9539C103.831 68.9539 103.866 68.9352 103.959 68.9352H103.97ZM55.1118 70.878C55.2979 70.878 55.4723 70.878 55.6583 70.878C55.2862 70.9842 54.7746 71.0966 55.1351 71.259C55.1351 71.1216 55.1235 71.0029 55.1235 70.878H55.1118ZM42.5659 59.3462C42.7403 59.3462 42.8333 59.3962 43.0077 59.3962C43.0193 59.3962 43.0193 59.3962 43.0193 59.3962C43.0193 59.3962 43.0193 59.3962 43.0077 59.3962C42.9728 59.415 42.8333 59.3962 42.81 59.415C42.7403 59.3962 42.6124 59.3712 42.5659 59.34V59.3462ZM51.705 56.71C51.705 56.735 51.705 56.71 51.705 56.735C51.6701 56.735 51.612 56.735 51.5771 56.735C51.5771 56.735 51.5655 56.735 51.5655 56.71C51.6004 56.735 51.6469 56.71 51.705 56.71ZM36.0429 10.7767H36.0196C36.0196 10.7767 36.0196 10.7767 36.0429 10.7767H36.0196C36.0429 10.7767 36.0545 10.7767 36.0661 10.7767C36.0545 10.7767 36.0545 10.7767 36.0429 10.7767ZM117.621 5.92911C117.074 6.13525 117.086 6.36014 117.656 6.5538C117.621 6.5538 117.621 6.5538 117.621 6.5538C117.621 6.3539 117.621 6.12901 117.621 5.92911ZM121.074 5.81041C121.132 5.78543 121.214 5.77293 121.26 5.74794C121.272 5.76668 121.225 5.76667 121.249 5.77917C121.179 5.77917 121.144 5.80416 121.074 5.80416V5.81041ZM443.875 2.08102C443.875 2.06228 443.828 2.06228 443.828 2.06228C443.875 2.06228 443.968 2.06228 443.991 2.06228C443.968 2.06228 443.933 2.08102 443.875 2.08102ZM697.469 7.72819C697.411 7.72819 697.352 7.7282 697.318 7.70945C697.352 7.70945 697.399 7.72819 697.469 7.72819ZM706.143 17.3172C706.143 17.3172 706.143 17.3172 706.143 17.2922C706.178 17.3172 706.224 17.3172 706.282 17.3172C706.236 17.3359 706.189 17.3172 706.143 17.3172ZM723.77 30.7105C723.677 30.723 723.596 30.7542 723.526 30.7667C723.526 30.7542 723.526 30.723 723.526 30.7105C723.596 30.7105 723.689 30.7105 723.77 30.7105ZM730.526 35.277C730.56 35.277 730.584 35.252 730.63 35.252L730.584 35.277C730.56 35.277 730.56 35.277 730.526 35.277ZM714.84 37.9694C714.968 37.9444 715.119 37.9444 715.247 37.9194L715.212 37.9381C715.073 37.9381 714.968 37.9631 714.84 37.9631V37.9694ZM692.376 51.7438C692.329 51.7438 692.283 51.7438 692.283 51.7438C692.283 51.7438 692.329 51.7438 692.376 51.7438ZM691.562 59.5836C691.527 59.4649 691.341 59.3275 690.83 59.1651C691.271 59.3213 691.643 59.4899 691.562 59.5836ZM633.297 69.9659L633.076 69.8722L633.146 69.7785C633.181 69.8473 633.239 69.9097 633.297 69.9659L633.355 70.0784C633.239 70.0347 633.076 70.0034 632.937 69.9847C633.03 69.9659 633.146 69.9659 633.297 69.9659ZM628.274 70.0034C628.274 70.0284 628.274 70.0284 628.274 70.0534C628.204 70.0534 628.146 70.0284 628.1 70.0284C628.146 70.0284 628.193 70.0034 628.274 70.0034ZM563.335 71.259C563.335 71.259 563.3 71.259 563.265 71.2715C563.265 71.259 563.3 71.259 563.3 71.2403C563.3 71.259 563.335 71.259 563.335 71.259ZM537.824 70.803C537.871 70.803 537.871 70.803 537.917 70.803C537.824 70.8218 537.824 70.8467 537.778 70.8467C537.778 70.8218 537.813 70.8218 537.813 70.803H537.824ZM454.118 70.7343C454.153 70.7343 454.153 70.7343 454.2 70.7343V70.753C454.153 70.753 454.153 70.753 454.153 70.753L454.118 70.7343ZM232.779 70.8717C232.593 70.8717 232.384 70.8717 232.186 70.8717C232.349 70.8717 232.523 70.8717 232.697 70.8467C232.721 70.8717 232.732 70.8717 232.767 70.8717H232.779ZM51.7864 46.3902C52.891 46.4964 53.984 46.6401 55.1118 46.7525C54.9607 46.7962 54.7514 46.7775 54.6119 46.815C54.0189 46.5713 53.391 46.3215 51.798 46.3902H51.7864ZM79.1806 8.68397C78.7155 8.66523 78.3202 8.68397 77.8434 8.66523C78.4248 8.64024 78.6922 8.64024 79.1806 8.60901C79.2039 8.64024 79.169 8.69022 79.1806 8.69022V8.68397ZM243.139 6.06654C243.371 6.01656 243.43 5.97283 243.65 5.94785C243.697 5.97283 243.499 6.04155 243.569 6.06654C243.43 6.08528 243.313 6.06654 243.139 6.06654ZM412.864 4.26118C412.864 4.28617 412.911 4.30492 412.911 4.32991C412.783 4.31116 412.864 4.31115 412.736 4.29241C412.783 4.26742 412.818 4.29242 412.864 4.26743V4.26118ZM460.723 1.69995C460.583 1.67496 460.513 1.63748 460.409 1.63748C460.758 1.63748 461.141 1.63748 461.513 1.63748C461.281 1.69995 460.955 1.63748 460.711 1.69995H460.723ZM699.434 32.2785C699.399 32.2535 699.294 32.2285 699.224 32.2285C699.294 32.2097 699.352 32.2285 699.434 32.2285C699.399 32.2285 699.469 32.2472 699.434 32.2785ZM680.074 41.0241C680.307 40.9741 680.621 40.9929 680.841 40.9554C680.876 40.9554 680.876 40.9741 680.9 40.9866C680.621 40.9741 680.353 41.0179 680.074 41.0179V41.0241ZM645.355 64.7435C645.401 64.731 645.459 64.731 645.529 64.731V64.7435C645.471 64.7435 645.448 64.7435 645.355 64.7435ZM537.696 70.7593C537.301 70.7406 536.975 70.803 536.65 70.778C536.975 70.778 537.359 70.778 537.696 70.7593ZM534.01 70.828C533.976 70.828 533.976 70.828 533.941 70.8093C534.01 70.828 534.069 70.828 534.15 70.828C534.103 70.828 534.069 70.828 534.01 70.828ZM476.978 68.1856C477.106 68.1668 477.234 68.1668 477.35 68.1481C477.641 68.2168 478.094 68.2168 478.373 68.2793C477.92 68.2418 477.408 68.2605 476.978 68.1856ZM476.931 69.7348C476.978 69.7348 477.024 69.7348 477.059 69.7348C477.059 69.7848 477.059 69.8285 477.106 69.8785C477.059 69.8785 477.024 69.8785 476.978 69.8785C476.978 69.8285 477.048 69.7848 476.931 69.7348ZM456.444 70.9779C456.444 70.9779 456.444 70.9779 456.421 70.9779C456.421 70.9467 456.386 70.9467 456.339 70.9467C456.386 70.9467 456.421 70.9779 456.444 70.9779ZM440.061 68.9602C440.061 68.9415 440.061 68.9602 440.061 68.9415C440.224 68.9602 440.386 68.9415 440.526 68.9602C440.317 68.9415 440.317 68.9602 440.061 68.9602ZM417.794 71.5839C417.852 71.6026 417.911 71.6276 417.969 71.6589C417.736 71.6589 417.469 71.6589 417.259 71.6589C417.434 71.6339 417.643 71.6339 417.806 71.5839H417.794ZM341.681 72.1711L341.646 72.2023C341.635 72.2023 341.588 72.1711 341.565 72.1711C341.623 72.1711 341.646 72.1711 341.693 72.1711H341.681ZM53.3561 67.0549H53.391H53.3561ZM52.3329 62.8382C52.3329 62.8382 52.3329 62.8382 52.3561 62.8382C52.6817 62.8382 53.0073 62.8382 53.3561 62.8382C53.3561 62.8382 53.3561 62.8382 53.3445 62.857C53.0189 62.8195 52.6817 62.8382 52.3329 62.8382ZM22.4853 38.0631C23.0783 38.1943 23.4736 38.313 23.3573 38.3817C23.0783 38.263 22.7527 38.1693 22.462 38.0756C22.4853 38.0631 22.4853 38.0631 22.4853 38.0631ZM45.182 11.9324C45.1355 11.9886 45.2634 11.9886 45.2402 12.0261C45.0541 11.9948 44.903 11.9698 44.7285 11.9324C44.8797 11.9324 45.0192 11.9324 45.182 11.9324ZM154.073 9.94585C154.073 9.85215 154.073 9.78343 154.108 9.68973C154.131 9.68973 154.201 9.68973 154.224 9.68973C154.073 9.76469 154.026 9.85215 154.073 9.94585ZM351.879 4.29241C351.902 4.29241 351.948 4.29241 352.03 4.29241C351.983 4.29241 351.902 4.29241 351.879 4.29241ZM374.54 4.26743C374.552 4.26743 374.54 4.26742 374.552 4.29241C374.54 4.29241 374.54 4.29241 374.517 4.29241C374.517 4.26742 374.54 4.26743 374.54 4.26743ZM662.866 8.89638C662.819 8.87139 662.819 8.89637 662.773 8.87139C662.819 8.87139 662.819 8.87139 662.866 8.87139V8.89638ZM633.239 65.1433C633.309 65.1121 633.402 65.1121 633.46 65.0871C633.483 65.1121 633.483 65.1121 633.518 65.1433C633.39 65.1121 633.309 65.1433 633.239 65.1433ZM520.406 64.9809C520.104 64.9997 519.639 64.9997 519.383 65.0246C519.685 64.9997 519.976 64.9809 520.406 64.9809ZM156.212 67.867C156.224 67.867 156.398 67.9107 156.468 67.9107C156.305 67.892 156.166 67.892 156.003 67.892C156.073 67.892 156.143 67.892 156.212 67.867ZM63.1929 60.0584C62.1581 60.0334 61.1 59.9897 60.1116 60.1146L60.1465 60.1021C61.1697 60.0271 62.1697 60.0584 63.1813 60.0584H63.1929ZM42.6472 51.725H42.624C42.2519 51.6501 41.7984 51.6313 41.3333 51.6313C41.3566 51.6313 41.3566 51.6313 41.3682 51.6313C41.8217 51.6313 42.1589 51.725 42.6472 51.725ZM65.2393 37.9694C65.3556 37.9694 65.4602 37.9694 65.5998 37.9694C65.4486 37.9944 65.3091 37.9694 65.1812 37.9944C65.1812 37.9694 65.2161 37.9944 65.2393 37.9694ZM20.4156 28.0243C20.4156 28.0243 20.4156 28.0243 20.4272 28.0243C20.4156 28.0243 20.4156 28.0243 20.3807 28.0243C20.3807 28.0243 20.3807 28.0243 20.4156 28.0243ZM69.0531 14.225C69.0066 14.225 68.995 14.225 68.9368 14.225C68.902 14.225 68.9485 14.175 68.9136 14.175C68.9834 14.175 68.9485 14.2 69.0531 14.225ZM687.481 31.0541C687.353 31.0541 687.19 31.0666 687.062 31.0541C687.109 31.0353 687.283 31.0541 687.353 31.0353C687.388 31.0541 687.423 31.0541 687.481 31.0541ZM400.574 68.1856C400.365 68.3043 400.167 68.398 399.888 68.4854C400.109 68.398 400.679 68.3355 400.574 68.1856ZM71.9135 66.1366C72.1228 66.1366 72.2972 66.1616 72.4832 66.1616C72.0762 66.2053 71.6693 66.1866 71.2623 66.299C71.4251 66.2241 71.7158 66.2053 71.9135 66.1366ZM65.3905 61.5639C65.4835 61.6139 65.4254 61.6576 65.5765 61.6763C66.1579 61.6763 66.7276 61.6763 67.3206 61.6763C66.9253 61.7513 66.6114 61.7263 66.216 61.7638C65.9486 61.7638 65.9718 61.6576 65.5765 61.6763C65.4486 61.6763 65.3556 61.6763 65.2277 61.6576C65.2858 61.6388 65.344 61.6139 65.3905 61.5639ZM63.7394 51.2003H63.7626C63.7626 51.2503 63.7626 51.294 63.7626 51.344C63.7394 51.344 63.7394 51.344 63.7278 51.344C63.8091 51.294 63.7626 51.2503 63.7394 51.2003ZM98.4937 46.3839C98.4123 46.4027 98.3426 46.4027 98.2961 46.4027C98.2961 46.3839 98.2612 46.3839 98.2961 46.3839C98.3426 46.3839 98.4356 46.3839 98.4937 46.3839ZM110.633 44.4599H110.644H110.633C110.447 44.5349 110.191 44.5786 109.935 44.6536C109.982 44.5786 110.121 44.5349 110.051 44.4599C110.261 44.4599 110.458 44.4599 110.644 44.4599H110.633ZM56.8094 43.348C56.8676 43.348 56.949 43.348 56.9955 43.323C56.7397 43.4167 56.9606 43.5354 56.9141 43.6228C56.8792 43.6228 56.8676 43.6228 56.8211 43.6228C56.8211 43.5354 56.8211 43.4416 56.8211 43.3542L56.8094 43.348ZM66.8555 41.0304C66.9602 41.0304 67.0997 41.0304 67.2276 41.0304C67.1462 41.0554 67.0299 41.0304 66.9253 41.0553C66.8904 41.0553 66.8788 41.0304 66.8672 41.0304H66.8555ZM49.5772 36.8387C49.6702 36.8387 49.7865 36.8387 49.9028 36.8387H49.9144H49.9028C49.8562 36.8637 49.74 36.8387 49.7167 36.8637C49.6586 36.8387 49.6004 36.8387 49.5772 36.8387ZM136.225 12.7195C136.225 12.7195 136.225 12.7195 136.201 12.7007C136.376 12.7007 136.527 12.7007 136.655 12.7007C136.539 12.7195 136.376 12.7195 136.225 12.7195ZM207.443 9.78343C207.594 9.78343 207.64 9.78343 207.815 9.78343C207.664 9.78343 207.582 9.78342 207.443 9.80217C207.419 9.78342 207.443 9.78343 207.443 9.78343ZM301.671 7.39711C301.648 7.39711 301.59 7.37214 301.578 7.33466C301.671 7.33466 301.764 7.33466 301.846 7.33466C301.788 7.36589 301.718 7.39711 301.671 7.39711ZM379.877 5.45434C379.877 5.45434 379.738 5.45433 379.738 5.42934C381.087 5.50431 382.354 5.32315 383.691 5.33565C382.424 5.33565 381.145 5.36688 379.877 5.45434ZM383.726 6.2352C383.552 6.20396 383.331 6.23521 383.214 6.20397C383.342 6.18523 383.47 6.20395 383.645 6.18521C383.645 6.20395 383.691 6.20396 383.738 6.2352H383.726ZM458.828 6.29767C458.583 6.29767 458.374 6.29767 458.107 6.27893C458.723 6.27893 459.304 6.26643 459.886 6.26643C459.537 6.26643 459.397 6.32266 458.828 6.29767ZM572.416 8.49032C572.462 8.49032 572.59 8.46534 572.637 8.46534V8.49032C572.544 8.49032 572.497 8.49032 572.416 8.49032ZM667.923 40.6493C668.028 40.6243 668.156 40.5931 668.296 40.5556C668.342 40.5868 668.261 40.6243 668.342 40.6493C668.203 40.6493 668.028 40.6493 667.923 40.6493ZM288.765 66.5364C288.707 66.6301 288.428 66.7238 288.172 66.83C288.125 66.83 288.09 66.83 288.032 66.83C288.195 66.7051 288.428 66.6114 288.753 66.5364H288.765ZM89.6918 65.1558C89.7267 65.1558 89.7615 65.1558 89.7732 65.1558C89.7732 65.1558 89.7732 65.1683 89.7732 65.1871C89.7615 65.1871 89.7383 65.1871 89.6918 65.1871C89.6918 65.1683 89.6918 65.1558 89.6918 65.1558ZM74.1692 60.1583C74.0762 60.1583 74.018 60.1583 73.9483 60.1583C74.0878 60.1208 74.1227 60.0459 74.1692 60.0084C74.1692 60.0459 74.1692 60.1208 74.1692 60.1583ZM110.703 10.7892C110.703 10.7642 110.703 10.7642 110.679 10.7642C110.935 10.7642 111.144 10.7642 111.377 10.7892C111.144 10.7892 110.935 10.7892 110.703 10.7892ZM402.295 9.27118C402.144 9.2212 401.993 9.18373 401.865 9.10877C402.121 9.1525 402.121 9.2212 402.458 9.27118C402.376 9.27118 402.33 9.27118 402.295 9.27118ZM572.416 11.1765C572.462 11.1765 572.462 11.1765 572.462 11.1765C572.462 11.1765 572.462 11.1765 572.416 11.1765ZM614.089 12.7132C613.902 12.7132 613.728 12.7132 613.577 12.7132C613.577 12.7132 613.542 12.7132 613.577 12.6945C613.74 12.7132 613.902 12.6945 614.089 12.7132ZM615.867 12.7132C615.902 12.7132 615.902 12.7132 615.937 12.7132C615.902 12.7132 615.867 12.7132 615.867 12.7132ZM660.947 14.6248C661.087 14.6123 661.063 14.5373 661.121 14.5186C661.261 14.5498 661.214 14.581 661.389 14.6248C661.214 14.6248 661.121 14.6248 660.947 14.6248ZM678.47 19.5785C678.609 19.591 678.714 19.591 678.888 19.6098C678.714 19.6098 678.47 19.6098 678.33 19.6098C678.377 19.591 678.423 19.5785 678.47 19.5785ZM673.633 30.4606C673.458 30.4107 673.284 30.3732 673.133 30.3419C673.353 30.3419 673.551 30.3419 673.726 30.3419C673.691 30.3857 673.691 30.4107 673.644 30.4606H673.633ZM512.453 59.6773C512.314 59.7023 512.151 59.7335 512.07 59.796C511.686 59.721 511.36 59.7648 510.93 59.7023C511.477 59.6773 511.93 59.6773 512.453 59.6773ZM111.935 58.5779C112.063 58.5966 112.249 58.6216 112.365 58.6528C112.202 58.6528 112.051 58.6528 111.889 58.6528C111.923 58.6278 111.935 58.6029 111.935 58.5779ZM36.0196 33.0093C36.0429 32.9844 36.0894 33.0094 36.101 32.9844C36.0894 32.9844 36.0894 32.9844 36.0894 33.0093C36.0777 33.0093 36.0429 33.0093 36.0196 33.0093ZM34.3569 31.4851C34.3569 31.4976 34.3569 31.4976 34.3569 31.4976C34.3569 31.4976 34.3569 31.4976 34.3336 31.4851C34.3569 31.4851 34.3569 31.4851 34.3569 31.4851ZM41.2519 28.8239L41.2171 28.9176C41.1706 28.8927 41.124 28.8427 41.031 28.8239C41.0892 28.8239 41.1706 28.8239 41.2519 28.8239ZM75.9365 16.9861C75.9365 16.9861 75.9365 16.9611 75.9365 16.9361C76.111 16.9361 76.297 16.9611 76.483 16.9361C76.3319 16.9861 76.0993 16.9611 75.9365 16.9861ZM75.9714 17.3484C75.9714 17.3234 75.9598 17.2734 75.9598 17.2547C76.0179 17.2734 76.111 17.3234 76.1924 17.3484C76.1226 17.3484 76.0412 17.3484 75.9714 17.3484ZM86.5408 15.7742C86.5175 15.7742 86.5175 15.7742 86.5175 15.7742C87.6337 15.7992 88.25 15.5868 89.1453 15.4993C88.2151 15.568 87.2268 15.6368 86.5408 15.7742ZM228.93 10.6268C228.895 10.6268 228.942 10.6518 228.93 10.6518C228.895 10.6518 228.884 10.6518 228.884 10.6518C228.895 10.6518 228.895 10.6268 228.93 10.6268ZM240.651 11.5513C239.709 11.5825 238.755 11.5825 237.814 11.5825C238.755 11.6075 239.709 11.5513 240.651 11.5513ZM515.29 11.9636C515.197 11.9948 515.197 12.0198 515.174 12.0198C515.174 12.0198 515.174 11.9948 515.174 11.9636C515.197 11.9636 515.232 11.9636 515.29 11.9636ZM573.986 13.4503C574.032 13.4503 574.079 13.4503 574.125 13.4753C574.125 13.4753 574.125 13.4753 574.125 13.4941C574.09 13.4941 573.985 13.4941 573.951 13.4941C573.985 13.4753 573.951 13.4753 573.986 13.4503ZM645.157 40.2307C645.076 40.1995 645.017 40.162 644.983 40.1121C644.983 40.0933 645.064 40.0433 645.064 40.0184C645.11 40.0433 645.111 40.0434 645.145 40.0683C646.11 39.9247 645.18 40.3619 645.145 40.2245L645.157 40.2307ZM203.943 64.7748C204.222 64.7373 204.222 64.6436 204.373 64.5749C204.373 64.6436 204.373 64.6998 204.373 64.7748C204.222 64.7935 204.094 64.7748 203.943 64.7748ZM107.145 36.0891C107.133 36.0891 107.121 36.114 107.052 36.114C107.04 36.114 107.075 36.0891 107.04 36.0891C107.075 36.0891 107.121 36.0578 107.133 36.0891H107.145ZM155.794 15.0308C155.782 15.0308 155.782 15.0308 155.782 15.0308C156.131 14.706 155.48 14.4686 154.201 14.3437C154.747 14.5623 155.27 14.7934 155.805 15.0308H155.794ZM324.194 13.8814C324.101 13.8814 324.031 13.9064 323.973 13.9314C323.612 13.8814 323.229 13.9064 322.88 13.8814C323.298 13.8814 323.74 13.8814 324.194 13.8814ZM294.695 9.28992C294.602 9.30866 294.497 9.30866 294.416 9.30866C294.381 9.30866 294.288 9.28992 294.241 9.28992C294.416 9.28992 294.532 9.28992 294.695 9.28992ZM503.861 13.2317C504.884 13.2817 505.558 13.2317 506.488 13.2317C506.174 13.3067 505.942 13.3629 505.779 13.4316C505.081 13.3379 504.57 13.3629 503.861 13.2317ZM636.727 15.3994H636.692H636.727ZM662.552 16.9174C662.4 16.8924 662.296 16.8736 662.04 16.8736C662.017 16.8736 662.017 16.8736 661.947 16.8736C661.563 16.8736 661.273 16.8549 661.447 16.7112C661.796 16.7862 662.18 16.8549 662.575 16.9236H662.552V16.9174ZM666.365 31.2602C666.435 31.2165 666.528 31.1665 666.61 31.0978C667.086 31.0978 667.493 31.0978 667.982 31.0978C667.551 31.2415 666.912 31.1915 666.365 31.2602ZM603.542 52.2123C603.821 52.256 604.101 52.2373 604.391 52.2748C604.31 52.2748 604.17 52.2998 604.101 52.331C603.938 52.256 603.717 52.2997 603.542 52.2123ZM500.035 58.4342C500.175 58.5154 500.233 58.5841 500.407 58.6591C500.128 58.6591 499.814 58.6591 499.535 58.6591C499.698 58.5841 499.872 58.5154 500.035 58.4342ZM404.748 64.4C405.097 64.4 405.423 64.4 405.772 64.4C405.772 64.4124 405.69 64.4125 405.69 64.4312C405.365 64.4 405.051 64.4 404.702 64.4125C404.702 64.4125 404.748 64.4124 404.748 64.4ZM206.117 62.4759C206.024 62.5259 206.071 62.5696 205.966 62.6196C205.873 62.5696 205.966 62.5259 205.873 62.4759C205.954 62.4759 206.036 62.4759 206.117 62.4759ZM176.002 61.0391C176.142 61.1578 176.56 61.2265 176.595 61.3452C176.456 61.3452 176.304 61.3203 176.142 61.3452C176.211 61.2016 175.979 61.1578 176.002 61.0391ZM82.8781 34.1525C82.6107 34.1713 82.2967 34.1525 82.0293 34.1525C82.0991 34.1525 82.0991 34.1275 82.1456 34.1026C82.3781 34.1525 82.6456 34.1026 82.8897 34.1525H82.8781ZM58.5536 17.7045C58.2861 17.7295 57.9838 17.7295 57.7164 17.7545C57.8908 17.7295 58.2047 17.7295 58.3675 17.6795C58.3908 17.6795 58.5303 17.6795 58.5536 17.6982V17.7045ZM131.213 16.1865C131.26 16.1677 131.353 16.1678 131.388 16.1365C131.423 16.1615 131.446 16.1615 131.469 16.1865C131.388 16.1865 131.295 16.1865 131.213 16.1865ZM157.573 14.9933C157.584 15.0246 157.619 15.0246 157.619 15.0246C157.584 15.0246 157.561 15.0246 157.491 15.0246C157.526 14.9933 157.561 15.0246 157.561 14.9933H157.573ZM202.792 13.4941C202.571 13.5128 202.489 13.5128 202.292 13.5441C202.152 13.5441 202.024 13.5191 201.92 13.4941C202.245 13.4941 202.466 13.4941 202.792 13.4941ZM221.71 17.3234C221.384 17.3234 221.035 17.2984 220.686 17.2797C221 17.2609 221.372 17.2797 221.71 17.236C221.71 17.2609 221.71 17.3047 221.71 17.3297V17.3234ZM299.985 16.5738C299.962 16.5488 299.892 16.5738 299.834 16.5738C299.834 16.5738 299.834 16.5738 299.823 16.5738H299.834C299.974 16.5488 299.881 16.5488 300.009 16.5488C300.009 16.5488 300.009 16.5488 299.985 16.5738ZM287.753 12.7195C287.451 12.7632 287.184 12.8257 286.974 12.8944C287.23 12.8194 287.486 12.7882 287.753 12.7195ZM374.505 10.0271C373.866 9.98333 373.796 10.1208 373.447 10.1832C373.25 10.1145 372.982 10.1145 372.808 10.0583C373.389 10.0583 373.924 10.0583 374.505 10.0271C374.505 10.0271 374.505 10.0271 374.505 10.0021C374.517 10.0271 374.575 10.0271 374.587 10.0271C374.575 10.0271 374.517 10.0271 374.505 10.0271ZM518.558 14.6248C518.592 14.6248 518.592 14.6123 518.627 14.581C518.627 14.6123 518.627 14.6248 518.627 14.6248C518.592 14.6248 518.558 14.6248 518.558 14.6248ZM650.668 15.4181C650.622 15.4181 650.587 15.4181 650.54 15.4181C650.575 15.3994 650.668 15.4181 650.703 15.3994C650.703 15.4181 650.668 15.4181 650.668 15.4181ZM634.936 29.9296C635.157 29.9046 634.878 29.8672 634.936 29.8109V29.9296ZM607.147 44.0913C607.31 44.0476 607.6 44.0913 607.81 44.0476C608.077 44.0913 608.426 44.0913 608.705 44.1163C608.205 44.1163 607.635 44.1163 607.147 44.0976V44.0913ZM494.326 55.5856C494.873 55.5856 495.419 55.5856 496 55.5856C495.419 55.5544 494.873 55.5731 494.326 55.5856ZM152.98 44.7285C152.724 44.7722 152.701 44.7723 152.48 44.816C152.387 44.7285 152.038 44.7785 151.887 44.7035C152.294 44.7035 152.573 44.7285 152.98 44.7285ZM157.015 39.5811C157.003 39.5374 157.154 39.5374 157.096 39.4874C157.247 39.4874 157.352 39.5124 157.503 39.5124C157.329 39.5311 157.177 39.5499 157.015 39.5811ZM46.4262 19.5848C46.3913 19.6035 46.368 19.6035 46.3448 19.6035C46.368 19.6035 46.3913 19.6035 46.4262 19.5848ZM176.607 17.2672C176.584 17.2859 176.7 17.2859 176.665 17.2859C176.653 17.2859 176.642 17.2859 176.607 17.2859C176.607 17.2859 176.607 17.2859 176.607 17.2672ZM213.105 14.2625C213.105 14.2812 213.035 14.2812 213.024 14.3124C213.001 14.2874 212.942 14.2625 212.931 14.2625C212.977 14.2625 213.047 14.2625 213.117 14.2625H213.105ZM312.043 12.7195C312.031 12.7195 312.008 12.7195 312.008 12.7195C312.008 12.7195 312.031 12.7195 312.043 12.7195ZM629.739 19.2287C629.786 19.2287 629.693 19.21 629.739 19.21L629.786 19.2287C629.786 19.2287 629.786 19.2287 629.739 19.2287ZM633.158 29.205C633.274 29.205 633.332 29.205 633.471 29.205C633.448 29.205 633.448 29.2237 633.378 29.255C633.297 29.23 633.274 29.205 633.158 29.205ZM626.262 47.1773C626.262 47.1773 626.262 47.1773 626.297 47.1773C626.297 47.1773 626.297 47.1773 626.262 47.1773ZM258.208 60.5831C258.208 60.5831 258.208 60.5831 258.208 60.5706C258.231 60.5706 258.266 60.5706 258.278 60.5706C258.266 60.5831 258.231 60.5831 258.208 60.5831ZM258.208 60.9517C258.208 60.9517 258.266 60.9517 258.278 60.9767C258.266 60.9767 258.231 60.9517 258.208 60.9517C258.278 61.0391 258.371 61.1016 258.406 61.1953C258.185 61.1016 257.929 61.0079 257.662 60.9517C257.848 60.9517 258.045 60.9517 258.22 60.9517H258.208ZM187.048 49.726C187.048 49.7573 187.048 49.8197 187.048 49.8322C186.932 49.8322 186.851 49.8322 186.792 49.8322C186.885 49.8197 186.99 49.7573 187.048 49.726ZM168.502 45.6593C168.084 45.7343 167.456 45.7155 167.154 45.8217C166.549 45.7155 165.817 45.778 165.189 45.6843C166.293 45.6843 167.386 45.6843 168.514 45.6593H168.502ZM172.886 44.7785C172.979 44.816 173.095 44.8535 173.153 44.8659C173.026 44.8659 172.967 44.8659 172.886 44.8659C172.933 44.8535 172.839 44.8222 172.886 44.7785ZM77.4714 30.3669C77.4714 30.3794 77.4714 30.3794 77.4597 30.3794V30.3669H77.4714ZM167.723 15.768C167.735 15.7367 167.619 15.718 167.596 15.6992C167.735 15.718 167.851 15.7305 167.991 15.768C167.898 15.768 167.805 15.768 167.723 15.768ZM164.456 18.4541H164.503C164.503 18.4541 164.468 18.4541 164.456 18.4541ZM306.09 18.5915C305.764 18.6165 305.392 18.5666 305.067 18.5915C304.741 18.5915 304.462 18.5915 304.16 18.5665C304.764 18.5478 305.415 18.5915 306.02 18.5478C305.439 18.3167 307.229 18.5666 306.09 18.5915ZM404.214 11.9886C404.179 11.9573 404.086 11.9886 404.039 11.9573C404.155 11.9573 404.179 11.9573 404.214 11.9573C404.214 11.9886 404.26 11.9886 404.214 11.9886ZM575.962 42.211C575.962 42.211 575.962 42.211 575.927 42.211C575.962 42.186 576.009 42.186 576.067 42.186C576.067 42.211 576.02 42.211 575.974 42.211H575.962ZM314.694 59.1026C314.868 59.0776 315.031 59.1026 315.194 59.0776C315.241 59.0776 315.182 59.0526 315.229 59.0526C315.31 59.0339 315.415 59.0526 315.496 59.0339C315.403 59.0339 315.322 59.0339 315.241 59.0339C315.496 58.9589 315.345 58.9027 315.368 58.8527C315.415 58.834 315.461 58.8527 315.508 58.8527C315.508 58.9027 315.508 58.9589 315.508 59.0339C315.775 59.0339 316.078 59.0776 316.345 59.1088C315.903 59.1276 315.357 59.0589 314.973 59.1276C314.706 59.1463 314.427 59.1276 314.171 59.1276C314.345 59.1088 314.531 59.1276 314.694 59.1088V59.1026ZM238.872 58.9589C238.941 58.9839 239.046 59.0089 239.116 59.0339C238.941 59.0339 238.732 59.0339 238.581 59.0339C238.616 59.0151 238.837 58.9902 238.86 58.9589H238.872ZM164.34 57.5034C164.375 57.5034 164.433 57.5034 164.468 57.5034C164.433 57.5034 164.375 57.5034 164.328 57.5034H164.34ZM188.955 51.2003H188.932C188.943 51.2003 188.955 51.2003 188.955 51.2003ZM187.06 49.4699C187.06 49.4949 187.06 49.5136 187.06 49.5136C186.292 49.4074 185.455 49.4949 184.676 49.4699C185.467 49.4699 186.316 49.4699 187.06 49.4699ZM180.362 49.3387C180.362 49.295 180.2 49.2263 180.56 49.245C181.281 49.2263 182.002 49.245 182.746 49.245C181.909 49.2887 181.141 49.2638 180.362 49.3387ZM190.595 39.5249C190.548 39.5249 190.536 39.5249 190.513 39.5249C190.513 39.4874 190.513 39.4249 190.513 39.3937C190.536 39.3937 190.536 39.3937 190.548 39.3937C190.56 39.4249 190.513 39.4874 190.595 39.5249ZM96.7613 31.8974C96.7729 31.8974 96.7845 31.8974 96.8194 31.9224C96.8194 31.9224 96.8194 31.9224 96.8078 31.9411C96.7845 31.9411 96.7729 31.9224 96.7613 31.9224C96.7264 31.9224 96.7613 31.9224 96.7613 31.8974ZM160.805 17.7045C160.817 17.6857 160.77 17.6857 160.77 17.667C160.805 17.6857 160.945 17.6857 160.98 17.7045C160.921 17.7045 160.875 17.7045 160.805 17.7045ZM161.212 18.5728C161.166 18.5353 161.003 18.5041 160.98 18.4604H161.003H160.98C161.119 18.4604 161.212 18.4604 161.34 18.4604C161.224 18.5041 161.282 18.5353 161.212 18.5728ZM327.368 21.4901C327.461 21.5151 327.624 21.4901 327.717 21.5151C327.461 21.5588 327.112 21.5401 326.868 21.5588C327.019 21.5151 327.263 21.5401 327.368 21.4839V21.4901ZM409.551 13.4816C409.574 13.5191 409.713 13.5503 409.783 13.594C409.609 13.5753 409.399 13.5191 409.225 13.5003C409.318 13.4816 409.434 13.4816 409.551 13.4816ZM628.227 24.9321C628.158 24.8259 628.053 24.7322 627.937 24.6135C627.89 24.7322 628.03 24.8259 628.286 24.9321H628.239H628.227ZM636.669 25.0258C636.669 25.0258 636.704 25.0008 636.669 24.9759C636.704 24.9946 636.75 24.9946 636.808 24.9946C636.762 24.9946 636.715 25.0196 636.669 25.0196V25.0258ZM603.694 28.4429C604.252 28.4241 604.787 28.4241 605.356 28.4241C604.88 28.4616 604.321 28.4429 603.856 28.5178C603.81 28.4928 603.763 28.4679 603.694 28.4429ZM621.018 31.4976C621.065 31.4976 621.112 31.4976 621.158 31.4976C621.123 31.4976 621.158 31.5101 621.123 31.5101C621.123 31.5101 621.077 31.4976 621.03 31.4976H621.018ZM382.249 57.5221C382.249 57.4534 382.203 57.4097 382.203 57.3347C382.587 57.3847 382.761 57.4784 383.168 57.5221C382.889 57.5034 382.587 57.5221 382.261 57.5221H382.249ZM225.128 47.9644C225.116 47.9394 225.058 47.9394 225.035 47.9394C225.105 47.9394 225.163 47.9394 225.209 47.9644C225.198 47.9644 225.163 47.9644 225.14 47.9644H225.128ZM162.828 34.3462C162.793 34.3212 162.747 34.3212 162.712 34.3212C162.712 34.2775 162.712 34.2275 162.712 34.1838C162.782 34.1838 162.863 34.1838 162.945 34.1838C162.805 34.2275 162.817 34.2775 162.817 34.3462H162.828ZM102.087 32.6158L101.924 32.6345C101.947 32.6345 101.901 32.6158 101.924 32.5908C101.959 32.6158 102.028 32.5908 102.087 32.6158ZM102.017 31.8162C101.959 31.8162 101.866 31.8412 101.796 31.8412C101.959 31.7225 102.226 31.6038 101.935 31.4976C101.842 31.4976 101.703 31.4976 101.598 31.4976C101.738 31.4539 101.935 31.4039 101.97 31.3414L101.935 31.4976C101.959 31.6038 101.97 31.7225 102.017 31.8162ZM101.901 31.0416C102.052 31.0416 102.191 31.0416 102.331 31.0416C102.191 31.0853 102.087 31.104 101.947 31.1353V31.1728C101.831 31.1603 101.691 31.1603 101.587 31.1353C101.703 31.1603 101.831 31.1353 101.947 31.1353L101.901 31.0416ZM154.166 18.5166C154.131 18.4916 154.073 18.4916 154.015 18.4728C154.084 18.4728 154.166 18.4728 154.247 18.4728C154.224 18.4916 154.212 18.4916 154.166 18.5166ZM581.067 28.4241C581.532 28.3054 582.218 28.3742 582.729 28.2805C582.729 28.3304 582.764 28.3742 582.799 28.4241C582.218 28.4241 581.66 28.4241 581.067 28.4241ZM261.673 45.6593H261.661H261.673ZM287.532 39.4624C287.579 39.4936 287.695 39.5061 287.695 39.5373C287.602 39.5373 287.486 39.5373 287.37 39.5373C287.416 39.5124 287.497 39.4999 287.544 39.4624H287.532ZM306.822 38.7565C306.194 38.7565 306.055 38.9252 305.532 38.9501C305.88 38.8752 306.415 38.8315 306.648 38.7378C306.694 38.7378 306.741 38.7565 306.822 38.7565ZM235.628 36.4639C235.628 36.5201 235.628 36.6263 235.628 36.6888H235.616C235.697 36.5951 235.662 36.5201 235.604 36.4639C235.616 36.4639 235.616 36.4639 235.628 36.4639ZM160.573 33.0468C160.724 33.0468 160.898 33.0468 161.038 33.0468C161.026 33.0906 161.026 33.153 161.003 33.228C160.921 33.2155 160.817 33.2155 160.759 33.1905C160.724 33.1468 160.689 33.0968 160.573 33.0531V33.0468ZM327.868 23.8702C328.286 23.8452 328.484 23.7515 328.868 23.7265C328.891 23.7265 328.891 23.7265 328.891 23.7265C328.507 23.7515 328.066 23.7765 327.868 23.8702ZM336.286 23.6328C336.251 23.7077 336.309 23.7952 336.437 23.8702C336.391 23.8452 336.321 23.8702 336.263 23.8452C336.286 23.7765 336.251 23.7077 336.205 23.6328C336.251 23.6328 336.263 23.6328 336.286 23.6328ZM477.373 17.2859C477.431 17.3047 477.536 17.3047 477.571 17.3297C477.536 17.3297 477.431 17.3297 477.373 17.3297C477.315 17.3047 477.269 17.3047 477.222 17.3047C477.257 17.2859 477.303 17.2859 477.373 17.2859ZM572.427 28.8052H572.474C572.427 28.8052 572.427 28.8052 572.427 28.8052ZM605.159 31.4289C605.333 31.3789 605.554 31.4039 605.752 31.3539C605.833 31.3727 605.833 31.4039 605.973 31.4289C605.67 31.4476 605.449 31.4039 605.159 31.4289ZM468.304 49.8635C475.722 50.1696 483.14 50.0071 490.582 49.8635C483.14 49.3887 475.722 49.4199 468.304 49.8635ZM469.315 50.6381C469.653 50.6631 469.653 50.7318 470.164 50.713C469.92 50.7318 469.618 50.713 469.362 50.713C469.408 50.7006 469.315 50.6693 469.315 50.6381ZM328.763 55.0859C328.926 55.1296 329.252 55.1608 329.403 55.217C329.252 55.217 329.077 55.217 328.914 55.217C328.961 55.1608 328.763 55.1296 328.763 55.0859ZM308.555 55.217C308.648 55.217 308.776 55.217 308.88 55.217C308.834 55.2483 308.799 55.2483 308.787 55.2608C308.717 55.2483 308.648 55.2483 308.566 55.217H308.555ZM291.195 39.1438C291.195 39.1625 291.195 39.1938 291.195 39.2188C291.055 39.1938 290.939 39.2188 290.823 39.1938C290.928 39.1938 291.067 39.1688 291.195 39.1438ZM164.514 33.0219C164.584 33.0219 164.642 33.0219 164.724 33.0219C164.689 33.0406 164.596 33.0406 164.549 33.0593C164.514 33.0406 164.538 33.0406 164.514 33.0219ZM148.852 22.3209C148.701 22.3397 148.527 22.2959 148.364 22.3209C148.317 22.2959 148.154 22.2959 148.085 22.246C148.352 22.2647 148.596 22.2897 148.864 22.3209H148.852ZM369.331 16.9424C369.331 16.9424 369.331 16.9424 369.32 16.9424C369.331 16.9424 369.331 16.9424 369.331 16.9424ZM532.65 22.8831V22.9768C532.557 22.9768 532.476 22.9769 532.383 23.0018C532.429 22.9519 532.476 22.9144 532.476 22.8831C532.51 22.8831 532.545 22.8831 532.65 22.8831ZM603.88 22.727C603.833 22.7082 603.763 22.7082 603.717 22.6895C603.822 22.6395 604.17 22.6395 604.345 22.5958C604.275 22.6645 603.973 22.6645 603.88 22.727ZM563.451 26.7312C563.625 26.6938 563.753 26.7125 563.905 26.6625C563.951 26.7063 564.125 26.7062 564.172 26.7312C563.905 26.7312 563.695 26.7312 563.451 26.7312ZM541.208 28.8552C541.161 28.8364 541.161 28.8364 541.115 28.8052C541.115 28.8052 541.161 28.8052 541.208 28.8052C541.208 28.8302 541.208 28.8302 541.208 28.8552ZM504.837 45.2907C504.791 45.2907 504.791 45.2658 504.744 45.2658C504.791 45.2658 504.837 45.2658 504.884 45.2658C504.849 45.2658 504.849 45.2907 504.849 45.2907H504.837ZM363.157 53.3305C363.064 53.3555 363.018 53.4054 362.901 53.4304C362.808 53.3555 362.459 53.4054 362.366 53.3117C362.622 53.3117 362.901 53.3305 363.157 53.3305ZM185.292 31.8849C185.304 31.8849 185.339 31.8849 185.351 31.8849H185.292ZM108.889 27.2934C108.714 27.3309 108.551 27.3622 108.389 27.4059C108.377 27.3622 108.482 27.3309 108.4 27.2934C108.575 27.2934 108.749 27.2934 108.889 27.2934ZM131.353 25.7567C131.388 25.7567 131.434 25.7567 131.481 25.7567C131.457 25.7567 131.446 25.7567 131.434 25.7567C131.399 25.7567 131.388 25.7567 131.364 25.7567H131.353ZM166.142 22.6895C166.189 22.6645 166.13 22.6395 166.142 22.6145C166.177 22.6145 166.177 22.6145 166.189 22.6145C166.189 22.6333 166.189 22.6645 166.189 22.6895C166.177 22.6895 166.177 22.6895 166.142 22.6895ZM463.037 23.0268C463.095 23.0081 463.246 23.0081 463.316 22.9831C463.316 23.0081 463.246 23.0081 463.246 23.0268C463.165 23.0268 463.072 23.0268 463.037 23.0268ZM605.321 23.258C605.263 23.3454 605.194 23.4391 605.147 23.5266C605.019 23.5266 604.891 23.5266 604.752 23.5266C605.054 23.4329 605.147 23.3392 605.194 23.2205C605.228 23.2517 605.252 23.2517 605.321 23.2517V23.258ZM503.395 28.8114C503.256 28.8114 503.128 28.8114 503 28.8114C503 28.5616 503 28.3117 503 28.0368C503 28.0118 503 27.9931 503 27.9681C503.047 27.9869 503.174 28.0056 503.221 28.0368C503.174 28.0368 503.081 28.0368 503 28.0368C502.186 28.3367 502.663 28.5616 503.395 28.8114ZM284.242 55.6106C284.149 55.6106 283.905 55.6106 283.742 55.6106C283.812 55.5981 283.788 55.5981 283.835 55.5794C283.928 55.5981 284.149 55.5794 284.242 55.6106ZM249.464 33.4154C249.476 33.4154 249.511 33.4154 249.522 33.4154C249.511 33.4154 249.476 33.4154 249.464 33.4154ZM190.513 30.3357C190.455 30.3607 190.478 30.3607 190.42 30.3607C190.42 30.3607 190.397 30.3607 190.397 30.3357C190.42 30.3607 190.467 30.3357 190.525 30.3357H190.513ZM143.643 25.763H143.608C143.597 25.763 143.573 25.763 143.55 25.763C143.573 25.763 143.608 25.763 143.643 25.763ZM197.431 23.8514C197.385 23.8514 197.269 23.8264 197.187 23.8264C197.269 23.8077 197.385 23.8077 197.455 23.8077C197.455 23.8077 197.455 23.8264 197.455 23.8577H197.431V23.8514ZM463.769 24.2887C463.513 24.2887 463.339 24.2137 463.095 24.2137C463.269 24.2137 463.444 24.2137 463.595 24.1887C463.653 24.2325 463.688 24.2637 463.769 24.2887ZM558.602 24.2387C558.602 24.2387 558.626 24.2387 558.626 24.22C558.626 24.2387 558.626 24.2387 558.626 24.2387H558.602ZM502.965 27.6808C503.268 27.6808 503.616 27.6995 503.954 27.6808C503.651 27.7557 503.279 27.6995 502.965 27.7745C502.965 27.7557 502.965 27.6995 502.965 27.6808ZM388.412 51.0129C387.761 50.7443 386.761 50.9254 385.889 50.9254C386.714 50.888 387.563 51.0004 388.412 51.0129ZM256.58 34.1713C256.592 34.19 256.673 34.19 256.708 34.19C256.638 34.19 256.569 34.19 256.499 34.19C256.51 34.1713 256.569 34.1713 256.592 34.1713H256.58ZM426.561 23.1705C426.527 23.1455 426.527 23.1268 426.527 23.1018C426.701 23.1018 426.875 23.1018 427.015 23.1018C426.899 23.1393 426.689 23.1205 426.561 23.1705ZM477.001 25.763C477.083 25.7505 477.222 25.7505 477.327 25.7255C477.28 25.763 477.164 25.7505 477.106 25.763C477.083 25.763 477.036 25.763 477.001 25.763ZM475.385 46.0466H475.245C475.338 46.0341 475.513 46.0341 475.641 46.0341C475.559 46.0466 475.466 46.0341 475.385 46.0466ZM302.241 48.2892C302.311 48.308 302.369 48.3267 302.45 48.358C302.276 48.358 302.102 48.358 301.939 48.358C301.927 48.333 301.881 48.333 301.857 48.333C301.985 48.3142 302.125 48.3142 302.253 48.2955L302.241 48.2892ZM177.851 25.4006C178.014 25.4006 178.281 25.4006 178.432 25.4006C178.293 25.4006 178.2 25.4007 178.072 25.4319C178.014 25.4007 177.932 25.4006 177.851 25.4006ZM426.701 23.4141C426.654 23.3954 426.654 23.3454 426.654 23.3017C426.654 23.3454 426.782 23.3954 426.875 23.4141C426.829 23.4141 426.782 23.4141 426.701 23.4141ZM392.028 39.4436C392.226 39.4124 392.54 39.4436 392.737 39.4124C392.912 39.4311 393.086 39.4312 393.237 39.4436C392.819 39.4436 392.423 39.4436 392.016 39.4436H392.028ZM267.429 30.2295C267.708 30.2295 267.975 30.242 268.254 30.242C267.638 30.2295 267.266 30.2732 266.684 30.242C266.929 30.242 267.149 30.2295 267.429 30.2295ZM225.244 28.8177C226.395 28.6428 226.174 28.4554 226.407 28.268C226.454 28.4366 226.151 28.5678 225.5 28.724C225.5 28.724 225.5 28.724 225.477 28.724C225.477 28.724 225.477 28.724 225.477 28.7552C225.337 28.7677 225.419 28.7864 225.244 28.8114L225.105 28.8614C225.163 28.8614 225.256 28.8614 225.326 28.8614C225.233 28.9052 225.163 28.9739 225.14 29.0238C225.14 28.9739 225.14 28.9301 225.105 28.8614C225.058 28.8614 224.977 28.8427 224.93 28.8114C225.023 28.8114 225.14 28.8114 225.244 28.8114V28.8177ZM225.233 26.9249L225.244 26.9061C225.291 26.9061 225.337 26.9061 225.384 26.9061C225.395 26.9061 225.395 26.9249 225.419 26.9249C225.349 26.9249 225.314 26.9249 225.233 26.9249ZM414.236 24.2137C414.236 24.1888 414.097 24.1887 414.097 24.17C414.236 24.17 414.306 24.1888 414.446 24.2137C414.353 24.2137 414.271 24.2137 414.236 24.2137ZM398.202 44.5286C398.423 44.5286 398.621 44.5036 398.842 44.5286L398.888 44.5036L398.923 44.4849C398.923 44.5036 398.888 44.5036 398.83 44.5286C398.656 44.5286 398.435 44.5536 398.237 44.5723C398.191 44.5536 398.237 44.5536 398.191 44.5286H398.202ZM443.968 37.2447C444.142 37.2447 444.316 37.2447 444.479 37.2697C444.351 37.2697 444.189 37.2697 444.072 37.2885C444.026 37.2697 444.026 37.2447 443.968 37.2447ZM437.073 41.0741C437.073 41.0741 437.073 41.0741 437.038 41.0741C437.073 41.0741 437.073 41.0741 437.096 41.0741C437.073 41.0741 437.073 41.0741 437.073 41.0741ZM426.596 25.763C426.364 25.7505 426.05 25.7255 425.794 25.7255C425.922 25.6943 426.015 25.6942 426.143 25.6755C426.224 25.7255 426.527 25.688 426.596 25.763ZM407.888 29.5923C407.748 29.5923 407.713 29.5673 407.539 29.5923C407.574 29.5673 407.667 29.5923 407.713 29.5486C407.748 29.5673 407.83 29.5673 407.888 29.5923ZM435.294 25.3569C435.329 25.3569 435.329 25.3569 435.329 25.3569C435.294 25.3569 435.294 25.3569 435.294 25.3569ZM385.028 25.7255C385.063 25.7255 385.168 25.7255 385.226 25.7255C385.203 25.7505 385.168 25.7505 385.11 25.7505C385.11 25.7505 385.028 25.7505 385.028 25.7255ZM340.367 29.5923C340.193 29.5923 339.995 29.5923 339.786 29.5923C339.949 29.5486 340.146 29.5923 340.274 29.5673C340.309 29.5673 340.344 29.5673 340.356 29.5923H340.367ZM265.161 29.9546C265.231 29.9296 265.336 29.9546 265.405 29.9296C265.417 29.9546 265.429 29.9546 265.475 29.9546C265.382 29.9546 265.266 29.9546 265.15 29.9546H265.161ZM390.168 48.7203C390.168 48.7203 390.168 48.6953 390.168 48.6703C390.191 48.689 390.191 48.7203 390.226 48.7203C390.191 48.7203 390.191 48.7203 390.168 48.7203ZM174.212 25.1008C174.514 25.1008 174.839 25.1008 175.13 25.1258C175.095 25.1258 175.037 25.1258 174.967 25.1508C174.735 25.1258 174.363 25.1508 174.2 25.1008H174.212ZM353.739 24.9883C353.762 24.9883 353.774 24.9883 353.774 24.9883C354.25 25.1758 355.053 25.1757 355.797 25.2195C355.797 25.2195 355.797 25.2195 355.785 25.2195C355.111 25.1508 354.437 25.082 353.739 24.9883ZM213.094 25.4006C213.082 25.4006 213.082 25.3757 213.047 25.3757C213.082 25.3757 213.082 25.3757 213.094 25.3757V25.4006ZM185.316 24.2137C185.153 24.2137 185.013 24.2137 184.851 24.2137C184.932 24.2137 184.979 24.17 185.048 24.17C185.106 24.1887 185.269 24.17 185.316 24.2137ZM293.683 54.9547C294.055 54.9797 294.451 54.9984 294.834 54.9984C294.834 54.9984 294.834 54.9984 294.811 54.9984C294.427 54.9984 293.974 55.0171 293.683 54.9547ZM569.032 31.1415C569.032 31.1415 569.032 31.1103 568.986 31.1103C569.079 31.1103 569.149 31.1103 569.207 31.1103C569.149 31.1103 569.067 31.1415 569.032 31.1415ZM297.718 55.2608C297.637 55.2608 297.544 55.2295 297.474 55.2295C297.672 55.2295 297.951 55.2295 298.16 55.2295C298.009 55.2608 297.834 55.2295 297.718 55.2608ZM591.101 30.8167C590.799 30.8354 590.462 30.8167 590.113 30.8167C590.159 30.8167 590.159 30.8167 590.159 30.8167C590.45 30.8354 590.787 30.8167 591.089 30.8167H591.101ZM100.738 24.2325C100.796 24.2325 100.877 24.2325 100.959 24.2325C100.796 24.2825 100.61 24.3262 100.529 24.3762C100.377 24.3262 100.482 24.3262 100.296 24.2575C100.447 24.2575 100.575 24.2325 100.738 24.2325ZM536.092 20.4031H536.045C536.092 20.4031 536.092 20.4031 536.092 20.4031ZM399.702 12.9319C399.702 12.9818 399.958 12.9319 399.9 13.0068C399.749 12.9881 399.621 13.0256 399.446 13.0068C399.586 12.9881 399.621 12.9568 399.702 12.9319ZM312.299 12.3447C312.462 12.3259 312.624 12.3072 312.775 12.3259C312.775 12.3259 312.787 12.3259 312.81 12.3259C312.636 12.3447 312.462 12.3259 312.299 12.3447ZM619.763 14.9246C619.763 14.9496 619.763 14.9496 619.763 14.9496C618.833 14.8059 617.809 14.7872 616.844 14.7372C617.809 14.7372 618.786 14.8309 619.763 14.9246ZM500.826 13.7814C500.256 13.7689 499.779 13.8002 499.268 13.8002C499.442 13.7814 499.617 13.7814 499.814 13.7689C500.163 13.7814 500.489 13.7814 500.837 13.7814H500.826ZM376.145 9.6585C376.017 9.63976 376.017 9.68349 375.924 9.6585C375.959 9.6585 375.971 9.6585 376.017 9.6585C376.052 9.6585 376.098 9.6585 376.145 9.6585ZM108.9 17.7045C108.947 17.7045 108.993 17.7232 109.051 17.7232C109.028 17.7232 108.993 17.7232 108.935 17.7232C108.947 17.7232 108.947 17.7232 108.982 17.7232C108.993 17.7232 108.819 17.7045 108.842 17.7232C108.854 17.7232 108.854 17.7232 108.889 17.7232C108.889 17.7045 108.889 17.7045 108.889 17.7045H108.9ZM318.985 9.14C319.008 9.14 319.019 9.14 319.066 9.14C319.066 9.18373 319.019 9.23371 319.124 9.30242C319.066 9.30242 319.019 9.30242 318.973 9.30242C318.973 9.22746 318.973 9.18373 318.973 9.14H318.985ZM140.12 50.6381C140.143 50.6381 140.143 50.6381 140.166 50.6381C140.143 50.6381 140.143 50.6381 140.12 50.6381ZM552.347 8.35288C552.01 8.36538 551.719 8.35288 551.359 8.35288C551.719 8.35288 552.01 8.36538 552.347 8.35288ZM284.288 10.0083C284.323 10.0271 284.323 10.052 284.358 10.052C284.323 10.052 284.3 10.052 284.288 10.052C284.288 10.027 284.288 10.0271 284.288 10.0083ZM124.586 14.656C124.016 14.6747 123.435 14.6747 122.853 14.6747C123.051 14.6435 123.202 14.606 123.342 14.581C123.749 14.6435 124.19 14.581 124.586 14.656ZM242.174 65.0746C242.081 64.9997 241.941 64.9372 241.755 64.8435C242.023 64.8185 242.313 64.8435 242.592 64.7935C242.313 64.8872 242.43 64.9997 242.174 65.0684V65.0746ZM60.0884 35.758C59.914 35.7393 59.7279 35.7393 59.5419 35.7393C59.5535 35.7393 59.5768 35.7267 59.5884 35.7267C59.8209 35.7267 60.0419 35.7267 60.2512 35.7267C60.2512 35.758 60.0884 35.7393 60.0767 35.758H60.0884ZM97.2845 49.27C97.831 49.27 98.3891 49.2887 98.9472 49.2887C98.9356 49.2887 98.9356 49.2887 98.9356 49.2887C98.3891 49.2887 97.831 49.27 97.2845 49.27ZM91.4359 64.4499C91.401 64.4312 91.4359 64.4312 91.401 64.4187C91.4475 64.4187 91.494 64.4187 91.5289 64.4187C91.5057 64.4312 91.4824 64.4499 91.4475 64.4499H91.4359ZM540.987 60.4457C541.661 60.377 542.475 60.4707 543.185 60.5206C543.185 60.5206 543.184 60.5206 543.15 60.5331C542.429 60.4457 541.708 60.4769 540.987 60.4457ZM103.714 65.9617C103.9 65.9117 104.098 65.8867 104.307 65.868C104.214 65.8867 104.121 65.9055 104.063 65.9617C103.924 65.9617 103.819 65.9617 103.714 65.9617ZM462.99 62.1261C463.072 62.1074 462.99 62.0761 463.072 62.0574C463.072 62.0761 463.037 62.1011 463.072 62.1261C463.037 62.1261 463.037 62.1261 462.99 62.1261ZM690.504 32.2785C690.55 32.2785 690.585 32.2785 690.585 32.2785C690.585 32.3534 690.888 32.3847 690.934 32.4596C690.725 32.4159 690.795 32.3284 690.504 32.2785ZM523.848 6.64124C523.848 6.64124 523.848 6.64124 523.813 6.64124C523.848 6.64124 523.848 6.64124 523.848 6.64124ZM391.481 5.27317C390.028 5.36688 388.307 5.31691 386.575 5.31691C387.203 5.29192 387.854 5.29192 388.47 5.24195C389.47 5.26693 390.516 5.22321 391.481 5.26694V5.27317ZM47.6935 53.5304C48.0424 53.5491 48.147 53.5616 48.5656 53.5928C48.1005 53.5928 47.7982 53.6241 47.3447 53.6366C47.4726 53.5929 47.6238 53.5616 47.6935 53.5304ZM233.907 68.2293C233.907 68.2293 233.907 68.2293 233.918 68.2293C233.907 68.2293 233.918 68.2293 233.907 68.2543C233.907 68.2293 233.907 68.2293 233.907 68.2293ZM631.704 68.5292C631.82 68.5042 631.925 68.5292 631.971 68.5042C632.262 68.5666 632.646 68.5979 633.099 68.6229V68.6479C632.716 68.5604 632.355 68.4667 631.692 68.5292H631.704ZM703.469 21.1715C703.189 21.1715 702.91 21.184 702.631 21.1715C702.876 21.0591 703.306 21.0341 703.608 20.9653C703.562 21.0341 703.422 21.0778 703.469 21.1715ZM68.9252 56.3727C68.588 56.3727 68.2857 56.3727 67.9369 56.3727C68.0415 56.354 68.1927 56.354 68.2857 56.329C68.4717 56.3727 68.7275 56.329 68.9252 56.3727ZM730.351 34.19C730.316 34.19 730.2 34.19 730.177 34.1713C730.258 34.1713 730.351 34.19 730.421 34.19C731.026 34.2837 731.572 34.2337 732.177 34.1713C731.572 34.19 731.026 34.19 730.421 34.19H730.351ZM585.473 5.74169C584.555 5.71045 583.613 5.8229 582.683 5.79791C582.729 5.79791 582.776 5.79791 582.811 5.79791C583.706 5.79791 584.613 5.72295 585.485 5.74169H585.473ZM40.8334 39.9496C40.8101 39.9309 40.8334 39.9309 40.8101 39.9184C40.938 39.9184 41.0543 39.9184 41.1706 39.9184C41.0892 39.9496 40.9264 39.9309 40.845 39.9496H40.8334ZM58.6814 68.6666C58.6466 68.6479 58.4954 68.6478 58.4954 68.6166C58.5768 68.6166 58.6814 68.6166 58.7628 68.5916C58.728 68.6166 58.6698 68.6416 58.6698 68.6666H58.6814ZM466.537 1.65622H466.513C466.571 1.61249 466.536 1.55004 466.513 1.51881C466.513 1.55004 466.537 1.61249 466.537 1.65622ZM28.6246 68.2543C28.7292 68.2543 28.892 68.2293 29.0432 68.2543C28.9966 68.2543 28.9153 68.2543 28.8687 68.2543C28.7874 68.2543 28.6827 68.2543 28.6246 68.2543ZM595.008 70.6219C594.961 70.6094 594.961 70.5469 594.868 70.5344C594.903 70.5344 594.95 70.5344 595.008 70.5344C595.008 70.5469 595.008 70.6094 595.008 70.6219ZM601.856 71.9712C601.856 71.9899 601.903 71.9899 601.949 72.0087C601.903 72.0087 601.857 72.0087 601.81 72.0087C601.81 71.9899 601.81 71.9899 601.845 71.9712H601.856ZM4.86975 32.7157C4.85812 32.6908 4.77673 32.6658 4.77673 32.6408C4.82324 32.6595 4.85812 32.6595 4.95114 32.6845C4.93952 32.6845 4.90463 32.6845 4.88138 32.7095L4.86975 32.7157ZM55.7048 71.3965C55.542 71.359 55.1932 71.359 55.0537 71.309C55.2514 71.309 55.449 71.309 55.6583 71.309C55.5653 71.359 55.7165 71.359 55.7048 71.3965ZM778.989 52.5933C775.966 52.5933 772.907 52.6183 769.908 52.6183C764.117 52.3122 758.513 52.6371 752.99 52.9744C749.99 52.862 747.164 52.8807 744.513 53.2743C743.92 53.0056 743.339 52.7245 742.792 52.4747C748.804 52.6371 754.199 52.1811 759.629 51.725C753.269 51.75 746.862 51.4939 741.013 52.181C740.874 52.181 740.92 52.1373 740.804 52.1373C740.804 52.1623 740.758 52.1623 740.758 52.181C739.095 52.0436 737.397 51.8749 735.758 51.75C736.316 51.4939 736.828 51.269 737.374 51.0066C740.711 50.3507 745.141 50.2008 749.06 49.776C751.385 49.8322 753.501 49.7635 755.164 49.2575C752.873 48.9202 751.327 49.3012 749.583 49.4324C749.722 49.2075 746.409 48.9514 749.955 48.7328C754.885 48.4329 751.525 48.2018 749.629 47.9769C746.13 47.5958 742.653 47.221 739.234 46.84C737.618 46.7025 735.502 46.9274 734.328 46.5026C741.153 46.0029 745.548 45.0846 744.92 43.348C749.722 43.223 748.455 41.3489 754.885 41.6426C753.106 41.4676 751.35 41.299 749.629 41.1428C751.28 40.9616 752.943 40.7992 754.548 40.6118C757.315 40.6431 760.257 40.7305 762.175 40.0246C757.838 39.8684 753.676 39.3687 749.315 39.9871C747.909 39.8435 745.897 40.0558 745.13 39.5686C749.281 39.275 753.606 39.0438 757.152 38.4566C758.071 38.4129 759.036 38.3817 759.966 38.3442C763.78 37.7882 770.419 38.3442 771.815 36.8387C771.815 36.7262 771.861 36.5888 771.861 36.4576C772.628 36.2265 773.407 35.9766 774.186 35.7267C774.686 35.5956 775.198 35.4581 775.721 35.3519C781.047 35.0646 778.5 34.3774 777.338 33.7965C773.733 32.3597 767.117 32.9032 761.734 32.6533C761.234 32.7283 761.559 32.8095 761.687 32.9032C761.687 32.8095 761.687 32.7283 761.734 32.6533C761.059 32.3784 760.42 32.1285 759.745 31.8787C759.908 31.5413 759.966 31.2165 758.641 30.9729C760.838 30.3107 760.129 29.9859 756.478 29.9421C756.524 29.7173 756.571 29.5173 756.606 29.3049C756.606 29.2862 756.606 29.3049 756.583 29.2862C756.606 29.2862 756.606 29.2862 756.606 29.2862C757.49 29.1925 760.35 29.1675 757.92 28.8489C755.931 28.5928 752.932 28.7552 750.757 29.1425C751.106 29.1675 751.432 29.1925 751.78 29.2175H751.734C751.385 29.1988 751.222 29.0801 750.757 29.1425C749.734 29.1925 748.676 29.2175 747.664 29.2612C746.571 29.2112 745.467 29.1925 744.339 29.1425C745.49 28.9239 746.629 28.6865 747.781 28.4429C751.478 28.5178 754.42 28.0806 757.524 27.762C758.675 27.6245 760.617 27.7182 760.745 27.306C761.001 26.5813 761.42 26.6063 763.547 26.2065C765.954 25.7692 769.873 25.8879 771.175 25.232C770.791 24.3637 764.64 25.4506 765.443 24.2762C767.431 24.0013 768.756 23.6265 768.849 23.0955C770.698 22.8831 770.698 22.6145 769.256 22.2959C769.524 21.5713 769.896 20.8342 769.931 20.1095C769.977 19.3537 770.326 18.5416 765.245 18.5166C764.815 18.4479 764.315 18.4229 763.768 18.4479C757.269 17.1485 750.734 17.9669 744.223 18.4229C741.758 17.6733 741.723 17.6483 745.188 17.3796C748.234 17.1235 752.222 17.2422 753.118 16.2552C757.641 15.8242 763.21 15.9616 767.024 15.0995C770.698 14.7997 774.407 14.4811 779.012 14.1C775.14 13.3067 771.524 12.732 767.315 12.3384C767.164 11.8449 766.489 11.4326 763.617 11.5451C759.455 11.1952 757.606 10.7517 758.734 9.58977C760.303 8.0218 753.722 6.30392 746.071 5.84789C743.048 5.87913 739.886 5.71671 737.223 6.19772H737.165C732.502 6.17273 727.828 6.19771 723.433 6.59751C722.363 6.59751 721.34 6.58502 720.27 6.58502C719.898 5.52305 714.48 6.20395 712.096 5.52304C723.537 4.53604 736.049 4.9046 748.467 3.14298C741.258 3.14298 736.514 3.16797 731.793 3.12424C724.933 3.08051 717.828 3.9176 711.305 2.81815C710.689 2.81815 710.084 2.81815 709.468 2.81815C706.643 2.80566 703.782 2.78692 700.91 2.78692C700.48 2.73695 700.015 2.71195 699.562 2.73694C693.876 2.2122 687.888 2.01855 681.807 2.01855C675.086 1.4251 668.098 1.25643 660.924 1.27517C646.308 0.325642 631.309 0.325637 616.251 0.469315C611.891 0.231933 607.496 0.231933 603.135 0.469315C601.717 0.469315 600.368 0.469315 598.973 0.469315C596.508 0.000798416 593.589 0.0944979 590.729 0.0944979C574.253 0.0944979 557.765 0.0944979 541.219 0.0944979C525.336 -0.0554274 509.407 -0.0304376 493.501 0.19445C486.35 0.288154 478.966 -0.242831 471.966 0.488055C471.478 0.600499 470.92 0.719188 470.408 0.837879C463.63 -0.211598 456.374 -0.0304223 449.002 0.444341C449.223 0.481822 449.444 0.531792 449.619 0.57552C449.502 0.57552 449.398 0.57552 449.305 0.57552C449.805 0.687964 450.374 0.775427 450.874 0.894118C450.526 0.744192 450.026 0.625495 449.305 0.57552L449.002 0.444341C447.898 0.469329 446.758 0.481807 445.63 0.506795C440.491 -0.0554251 435.27 0.381872 430.119 0.444341C427.352 0.444341 424.643 0.44433 421.876 0.413095C419.05 0.381861 416.213 0.263171 413.364 0.238183C388.272 0.219442 363.169 0.150736 338.065 0.169477C328.577 0.194464 319.031 -0.0304337 309.624 0.413095C295.323 0.400601 281.091 0.600513 266.859 0.912858C261.452 0.962833 255.941 0.737939 250.697 1.21895C255.999 1.24394 261.278 1.24393 266.545 1.25643C261.278 0.962825 255.999 1.03154 250.697 1.21895C247.371 1.25643 244.069 1.28142 240.744 1.33764C236.441 1.33764 232.035 1.15023 227.907 1.60625C224.721 1.62499 221.512 1.64998 218.314 1.68747C212.931 1.74993 207.454 1.51255 202.187 1.96233C199.455 1.98732 196.711 2.03728 193.978 2.04978C188.048 2.04978 182.048 1.92485 176.281 2.37463C175.246 2.39961 174.188 2.4246 173.142 2.44959C168.351 2.49331 163.456 2.26219 158.887 2.76818C158.387 2.72446 157.91 2.72444 157.445 2.79316C152.061 2.76817 146.631 2.67447 141.445 3.13049C139.841 3.14924 138.271 3.17422 136.678 3.22419C136.062 3.22419 135.469 3.22419 134.853 3.22419C131.841 3.20545 128.853 3.20545 126.062 3.49281C125.923 3.51155 125.783 3.49281 125.644 3.51155C120.4 3.49281 115.109 3.38661 110.156 3.92384H110.144C102.447 3.92384 94.8195 4.04253 87.5291 4.66722C85.971 4.67972 84.3897 4.72344 82.8316 4.76092C79.7852 4.97332 76.7272 5.21071 73.6576 5.41686C73.8552 5.45434 74.0994 5.50431 74.2389 5.54804C74.4017 5.623 74.4482 5.68548 74.5296 5.73546C74.1227 5.74795 73.7157 5.78543 73.3204 5.81041C73.3785 5.66674 73.7738 5.59802 73.6576 5.42311C64.2859 5.78543 55.0304 6.22271 46.1471 6.99732C45.6006 6.94734 45.1123 6.97232 44.6355 7.06603C43.2635 7.0223 41.9031 6.97233 40.9613 7.27218C33.7058 7.68448 26.5084 8.17798 19.1482 8.49657C14.0554 8.70896 12.4973 9.3399 12.8462 10.3769C10.73 10.8204 11.5788 11.4139 11.4392 11.9698C9.88117 12.9631 9.91605 14.0126 10.137 15.0371C9.56723 15.9491 9.33468 16.8611 10.1835 17.7482C9.59048 18.4291 9.92768 19.0725 11.3811 19.6847C10.6835 20.3032 10.23 20.9154 11.2997 21.5526C8.07892 22.5708 12.9276 23.9888 7.77661 24.9259C7.86963 24.9634 8.12543 25.0008 8.25333 25.0133C8.21845 25.0133 8.21845 25.0321 8.17194 25.0321L7.77661 24.9259C5.61391 25.0321 3.49771 25.1758 2.84658 25.7442C0.962935 26.2003 1.57919 26.7875 1.34664 27.3184C1.31176 27.5621 1.26525 27.8057 1.21874 28.0931C-1.51371 30.117 1.1606 32.166 1.45129 34.215C2.03266 34.3275 2.56752 34.215 3.14889 34.1963C2.56752 34.1963 1.99777 34.1963 1.45129 34.215C2.05591 35.0833 2.64891 35.9704 3.1954 36.8574C3.76514 37.4946 4.28838 38.1318 4.81161 38.7877C4.81161 39.2875 5.84645 39.6623 7.67196 39.9496C7.6487 40.312 7.63708 40.6493 7.60219 41.0304C5.03253 41.805 2.69542 42.5483 9.97419 42.5983C9.92768 42.4859 9.85791 42.3734 9.83466 42.236C9.91605 42.236 9.99744 42.236 10.1021 42.236C9.88117 42.3547 9.61374 42.4609 9.98581 42.5983C13.0903 43.0981 18.9273 41.8737 20.3924 43.3917C21.4853 43.4417 21.7993 43.2355 22.2411 43.0981H22.2527C22.7295 43.0544 23.2411 43.0044 23.7643 43.0044C23.7759 43.0044 23.7759 43.0044 23.7992 43.0044H23.7643C23.7527 43.0981 23.5085 43.0731 23.4736 43.1418C23.0667 43.1231 22.6946 43.0294 22.2527 43.0981C21.6249 43.1918 21.0202 43.298 20.3924 43.3917C19.2529 43.4167 18.0785 43.4417 16.9506 43.4667C12.6601 43.3917 8.34635 43.298 4.21861 43.6915C2.28846 43.6665 0.637369 43.9039 0.486213 44.285C0.323429 44.7223 2.46287 44.6473 3.70701 44.666C9.06725 44.7847 14.4507 44.8722 19.8226 44.9659C19.8575 45.197 19.904 45.4219 19.9505 45.678C15.8925 45.678 11.8462 45.678 7.21849 45.678C10.2649 47.0399 16.2297 45.5094 18.4273 46.6713C18.5203 46.7463 18.8459 46.6963 19.0203 46.7463C18.811 46.8212 18.8343 46.8837 18.4971 46.9587C18.2645 46.865 18.2529 46.765 18.439 46.6775C15.6716 46.7712 12.9159 46.84 10.137 46.9024C7.82311 46.8899 5.03253 46.6088 3.69538 47.2523C3.21865 47.4522 5.12555 47.5021 6.12551 47.5708C10.916 47.3022 13.7531 48.4142 18.1831 48.3892C17.6483 51.3315 15.474 54.2862 20.5551 57.1598C20.6249 57.2848 20.6947 57.4284 20.7412 57.5409C20.7063 57.9532 20.6482 58.3342 20.6249 58.7215C20.4621 58.9527 20.2877 59.1776 20.1482 59.4024C20.2412 59.5399 20.5435 59.8772 20.7063 60.0709C20.59 60.0896 20.6947 60.1396 20.5435 60.1646C21.6714 59.8585 21.1946 59.6336 20.1482 59.4024C18.6134 60.1646 17.8692 60.9392 18.9389 61.7763C14.5438 63.4442 17.7297 65.4619 13.4043 67.1299C12.7997 67.5109 11.3113 67.8795 12.9624 68.3105C12.602 68.6916 12.2648 69.0851 11.9043 69.4912C11.9276 69.4912 11.9276 69.4912 11.9276 69.4912C11.9276 69.4912 11.9276 69.4912 11.9043 69.4912C11.8229 69.966 11.7183 70.4719 11.6369 70.9529C11.6718 71.384 11.1951 71.8525 13.5206 72.0899C14.0438 72.0649 14.5554 72.0899 15.0089 72.1586C13.881 72.3835 12.7415 72.6146 11.5904 72.8395C11.3113 73.6141 11.6369 74.1826 16.346 74.1139C24.055 73.9952 31.7756 73.9952 39.4962 73.9639C45.9029 74.0264 52.3678 74.2326 58.6001 73.6828L59.0652 73.7328L59.5186 73.6578C64.6928 74.2326 70.367 74.2326 75.9017 74.3388C85.471 75.1946 95.6334 74.7948 105.493 75.0759C117.016 75.2508 128.493 75.7318 140.132 75.5319C140.713 75.5319 141.283 75.5319 141.864 75.5132C146.794 76.2128 152.352 75.6631 157.491 75.8755C160.933 75.8755 164.398 75.8755 167.84 75.8755C167.282 75.7568 166.723 75.6381 166.165 75.5319C166.212 75.5319 166.258 75.5319 166.328 75.5132C166.723 75.6381 167.154 75.7818 167.84 75.8755C169.63 75.8755 171.398 75.8755 173.2 75.8942C180.037 75.938 186.909 75.9817 193.804 76.0254C200.071 76.7126 206.617 75.938 212.989 76.2128C214.198 76.319 214.605 76.1941 214.791 75.9692C217.71 75.8505 221.186 76.2128 223.303 75.457C223.93 75.4819 224.547 75.5319 225.186 75.5444C230.465 76.3877 235.767 77.1249 241.116 75.5694C241.697 75.4569 242.267 75.3445 242.837 75.2258C243.302 75.2071 243.755 75.1946 244.255 75.1571C245.36 75.2945 246.453 75.4132 247.569 75.5382C247.976 76.0067 248.86 76.2253 251.371 76.3003C257.266 76.5002 262.894 76.2566 268.522 75.963C268.928 75.8193 268.615 75.6881 268.37 75.5382C268.463 75.5382 268.568 75.5382 268.649 75.5382C268.603 75.6818 268.568 75.813 268.51 75.963C270.196 76.7563 273.184 76.0192 275.358 76.2566C279.544 76.2566 283.753 76.2316 287.951 76.2316C289.753 76.2316 291.904 76.5002 293.055 75.938C299.892 76.7313 306.706 76.0691 313.531 75.9067C316.624 76.0129 319.578 75.938 322.229 75.5444C324.752 76.1941 327.205 76.9125 331.321 76.0129C332.089 75.8005 331.868 75.6006 330.961 75.4382H330.972C331.065 75.6194 331.193 75.8193 331.321 76.0129C333.565 75.5319 336.123 76.7625 338.274 75.938C338.763 75.938 339.263 75.938 339.728 75.9067C345.553 75.4819 351.332 77.0312 357.146 75.9067C358.262 75.938 359.367 75.938 360.471 75.9692C363.366 76.0129 366.32 76.3065 369.18 75.8942C371.436 75.938 373.715 75.9817 376.029 76.0254C378.366 75.7818 386.191 76.2815 379.575 74.7698C381.342 74.7698 383.11 74.7698 384.877 74.7698C390.586 75.1196 395.981 75.8755 402.295 75.5444C404.632 75.8942 406.992 75.5319 409.341 75.5444C410.353 75.5444 411.318 75.5444 412.283 75.5444C413.667 75.8755 415.004 76.0129 416.376 75.5444C418.352 75.2508 420.922 74.9822 417.922 74.3637C417.922 74.27 417.922 74.1888 417.922 74.0701C420.213 74.0264 422.538 73.9764 424.852 73.9327C429.666 73.8453 434.875 74.1638 439.073 73.3455C440.642 73.2955 442.177 73.2768 443.735 73.2268C444.944 73.3705 446.072 73.5579 447.34 73.6454C448.688 73.7578 450.363 74.1888 451.584 73.7578C452.77 73.3455 449.712 73.258 449.316 72.9395L449.084 72.8458C454.293 72.8895 459.455 72.9145 464.676 72.9644V73.1893C463.374 73.258 462.002 73.3455 460.688 73.4392C461.281 73.8952 462.885 74.1451 464.723 74.345C462.769 75.5756 465.909 75.6693 470.06 75.5382C471.246 75.4257 472.397 75.307 473.571 75.1696C475.408 75.1446 477.478 75.2633 478.629 74.776C482.978 74.6698 487.605 75.4882 491.733 74.6261C489.954 73.914 485.582 74.2763 483.664 73.6703C488.117 73.7453 490.582 72.852 494.303 72.5522C495.442 72.5522 496.535 72.5522 497.651 72.5522C497.582 73.308 498.965 73.6703 502.535 73.6703C506.093 73.6516 506.395 73.1394 506.465 72.5522C508.186 72.5147 509.907 72.4834 511.604 72.4397C511.883 72.321 511.476 72.2273 511.349 72.1399C511.43 72.1399 511.523 72.1399 511.558 72.1399C511.604 72.1399 511.604 72.1399 511.604 72.1399H511.558C511.604 72.2273 511.604 72.321 511.604 72.4397C512.162 72.4834 512.755 72.5147 513.302 72.5522C513.976 72.8957 510.674 73.4892 514.43 73.6204C518.127 73.7578 518.744 73.1893 518.685 72.5522C519.139 72.4585 519.685 72.4585 520.244 72.5334C520.837 72.8957 521.464 73.258 522.046 73.6516C522.011 73.7453 521.988 73.8328 521.988 73.914C519.941 74.1701 516.674 73.7391 515.186 74.6886C519.395 74.5137 523.127 74.3388 526.348 75.0571C527.825 75.3757 530.697 75.1696 532.673 74.8323C536.638 74.7573 540.754 75.3757 544.661 74.7573C546.44 74.7573 548.301 74.851 549.405 74.42C552.021 74.2138 551.44 73.7141 551.696 73.283C552.893 73.258 554.068 73.2331 555.265 73.1893C556.951 73.3018 558.533 73.258 559.614 72.9145C560.033 72.877 560.428 72.802 560.847 72.7583C560.428 72.8083 559.916 72.8083 559.614 72.9145C562.87 73.5017 566.614 72.877 570.125 72.877C571.369 72.9145 572.718 72.852 573.73 73.1956C576.416 73.9015 570.125 73.4954 571.788 74.1014C575.427 74.0327 580.008 74.2638 579.416 72.852C583.95 72.9457 587.717 74.3388 592.985 73.2331C595.473 73.3518 597.938 73.9702 600.554 73.308C602.135 73.2643 603.717 73.2143 605.275 73.1706C605.868 73.1956 606.461 73.1956 607.042 73.2206C611.391 73.2206 616.449 73.7203 619.263 72.4647C619.263 72.2211 619.263 71.965 619.286 71.7151C619.402 71.7151 619.472 71.7151 619.542 71.7151C618.833 71.94 618.437 72.1961 619.263 72.4647C623.077 72.827 627.088 73.5079 629.681 72.1274C630.111 71.965 629.681 71.8525 629.402 71.7463C629.518 71.7463 629.599 71.7463 629.681 71.7463C629.681 71.8525 629.681 71.9899 629.681 72.1274C632.646 72.396 635.611 72.7333 638.657 72.1773C641.459 72.1524 644.25 72.1274 646.994 72.1086C649.634 72.2023 651.924 72.0149 654.145 71.7213C655.819 71.7213 657.517 71.7213 659.226 71.7213C662.11 71.359 664.993 70.9717 667.877 70.5844C671.342 70.3095 674.784 71.4402 678.284 70.5969C677.691 70.3532 677.109 70.1034 676.505 69.8223C676.505 69.6973 676.551 69.5786 676.551 69.4412C678.504 69.1413 681.295 69.1226 682.376 68.5292C680.121 68.0357 678.446 68.5791 676.551 68.6666C676.005 68.6666 675.458 68.6666 674.853 68.6666C674.853 68.423 674.853 68.1856 674.853 67.9607C676.051 67.8045 677.225 67.6671 678.446 67.5296C682.318 67.1174 686.981 67.892 690.539 67.1174C690.574 67.1174 690.574 67.1174 690.574 67.1174H690.539C693.457 66.5239 699.015 67.1174 700.713 66.0054C704.306 66.299 707.41 66.0991 711.143 65.6181C707.073 65.6181 703.934 65.6181 700.794 65.6181C701.527 65.2933 702.829 65.237 704.236 65.1996C706.085 65.0246 707.899 64.856 711.166 64.5436C707.526 64.4562 705.631 64.4 704.306 64.8372C703.759 64.8372 703.201 64.8372 702.655 64.8248C702.806 64.2313 706.817 63.6316 702.806 63.0194C705.027 63.0007 707.294 62.9444 709.526 62.9257C710.945 63.1943 709.782 64.0189 711.701 63.8815C714.654 63.6503 711.898 63.0631 711.619 62.6258C711.654 62.6258 711.654 62.6258 711.654 62.6258C719.421 62.351 727.049 61.9637 735.304 61.239C728.223 60.8018 722.758 62.3322 716.654 61.4264C721.142 60.9829 726.351 60.9829 730.479 60.302C734.432 60.0584 739.793 60.4644 741.293 59.1213C742.211 59.0526 743.362 59.0276 743.048 58.7153C745.164 58.734 747.304 58.7528 749.455 58.784C753.513 59.5336 756.664 58.7153 760.268 58.4404C756.315 58.5716 753.129 57.9157 749.315 58.0094C746.816 57.9594 744.269 57.822 742.42 58.3717C740.223 58.3717 737.955 58.3467 735.723 58.3467C735.072 58.2343 734.479 58.1031 733.897 57.9844C735.2 57.9469 736.676 57.9469 737.246 57.5721C745.385 57.4784 752.594 56.7038 759.931 56.0541C761.059 56.0229 762.199 56.0041 763.35 55.9854C765.338 55.6418 766.792 55.2108 767.384 54.6548C764.908 54.3425 763.454 54.7985 761.699 54.9297C761.024 54.9297 760.385 54.9297 759.71 54.9297C757.269 54.8297 755.117 54.9672 753.094 55.267C750.234 55.267 747.409 55.2982 744.618 55.3107C742.979 55.1108 741.606 54.7423 739.362 54.8297C740.002 54.6111 740.665 54.3737 741.304 54.1551C745.199 53.3555 751.013 54.2488 754.873 53.3742C759.315 53.3555 763.768 53.3055 768.233 53.2805C772.001 53.5366 775.163 52.9182 778.779 52.8995C780.477 52.5996 783.686 53.0619 785 52.381C782.326 52.1248 780.407 52.1248 778.942 52.6246L778.989 52.5933Z" fill="#FE7E53" fill-opacity="0.15"/>
</svg>
