<svg width="1728" height="1316" viewBox="0 0 1728 1316" fill="none" xmlns="http://www.w3.org/2000/svg">
<path d="M-2 1241.64C-2 1252.68 6.9543 1261.64 18 1261.64H885.526H1708C1719.05 1261.64 1728 1252.68 1728 1241.64V86.0089C1728 75.5625 1719.96 66.8759 1709.55 66.0687L858.556 0.120728C857.52 0.0404053 856.48 0.0410156 855.444 0.122437L16.4333 66.0504C6.02727 66.8682 -2 75.5509 -2 85.989V1241.64Z" fill="#98D2E8"/>
<path d="M-2 1292.39C-2 1304.75 9.09747 1314.15 21.2882 1312.12L416.369 1246.27C418.443 1245.92 420.559 1245.91 422.639 1246.22L882.467 1315.54C884.494 1315.84 886.557 1315.84 888.581 1315.52L1325.2 1246.27C1327.38 1245.92 1329.61 1245.94 1331.79 1246.33L1704.54 1311.87C1716.78 1314.03 1728 1304.61 1728 1292.18V507.29C1728 496.244 1719.05 487.29 1708 487.29H18C6.95428 487.29 -2 496.244 -2 507.29V1292.39Z" fill="#F2FAFF" fill-opacity="0.12"/>
</svg>
