<svg width="1057" height="233" viewBox="0 0 1057 233" fill="none" xmlns="http://www.w3.org/2000/svg">
<path d="M100.411 0C80.651 0 60.9337 0.976283 41.3442 3.17282C47.2147 77.7645 37.1568 157.403 0 231.638C65.9967 213.972 126.382 208.457 185.568 208.457C226.977 208.457 267.793 211.156 309.568 214.264C352.875 217.273 337.607 220.745 381.305 220.745C950.404 203.766 1006.16 197.882 1057 177.417C1039.88 130.04 1031.43 81.3637 1030.46 33.2729C1008.65 36.7445 987.228 38.2261 966.015 38.2261C899.741 38.2261 382.882 40.7565 315.266 27.363C245.818 13.1136 172.818 0 100.411 0ZM100.411 5.26762C133.252 5.26762 168.472 7.97734 208.084 13.5453C245.977 18.8724 282.903 26.1208 314.018 32.4992L314.04 32.5054H314.062C321.071 33.8994 328.144 35.3153 334.996 36.6904C395.905 48.9201 906.003 43.4922 966.019 43.4922C986.448 43.4922 1005.77 42.1623 1024.87 39.4464C1026.43 85.8913 1034.84 131.261 1049.93 174.465C1007.07 190.85 957.189 198.495 381.309 215.474C342.305 215.474 361.987 212.665 323.34 209.942C318.892 209.632 314.432 209.316 310.03 209.011C270.478 206.066 228.288 203.186 185.571 203.186C121.966 203.186 65.8775 209.673 10.1891 223.536C40.3476 158.713 52.8673 86.2267 47.4431 7.82397C64.3869 6.1265 82.1773 5.26609 100.416 5.26609L100.411 5.26762Z" fill="#263E4E"/>
<path d="M381.305 232.452C356.14 232.452 390.408 231.306 365.13 229.755L364.452 229.625L364.154 229.567C362.684 229.284 361.217 229 359.749 228.713L359.067 228.58C357.786 228.33 356.505 228.078 355.226 227.823L353.841 227.548C352.829 227.347 351.815 227.144 350.805 226.942L348.572 226.493L346.737 226.122C339.812 224.721 332.911 223.291 326.04 221.844C363.837 224.502 343.205 227.183 381.304 227.183C949.295 210.205 994.503 204.333 1033.65 191.864C1034.3 193.516 1034.94 195.165 1035.6 196.817C990.692 211.106 942.513 215.474 381.305 232.452ZM1002.75 48.3757C1002.76 48.5853 1002.78 48.7964 1002.79 49.006C1002.84 49.89 1002.9 50.7724 1002.96 51.6563L1002.97 51.7847L1003.1 53.6448C991.029 54.6883 978.736 55.203 966.017 55.203C906.001 55.203 395.904 60.6309 334.994 48.4013C328.142 47.0261 321.069 45.6087 314.06 44.2163H314.038L314.016 44.21C282.902 37.8284 245.977 30.5817 208.082 25.2562C199.687 24.0734 191.496 23.0252 183.476 22.1006C199.392 22.2179 215.319 22.6983 231.202 23.4008C259.611 27.9441 287.718 33.4166 315.268 39.0722C382.883 52.4658 899.742 49.9354 966.017 49.9354C978.186 49.9354 990.412 49.4504 1002.75 48.3787L1002.75 48.3757Z" fill="#FD6666"/>
</svg>
