<svg width="869" height="216" viewBox="0 0 869 216" fill="none" xmlns="http://www.w3.org/2000/svg">
<path d="M833.442 212.264C834.277 211.594 835.794 211.796 836.565 211.063C836.616 211.101 836.705 211.076 836.755 211.101C835.453 211.253 834.175 211.341 833.442 212.264ZM25.11 84.9417C25.11 85.1314 25.11 85.3337 25.11 85.5234C25.0089 85.6245 24.8445 85.7004 24.718 85.8016C22.1638 85.8016 19.6221 85.7763 17.0678 85.7763C19.7739 85.5234 22.4293 85.2326 25.11 84.9417ZM12.6168 76.7225C12.5662 76.8869 12.5156 77.0259 12.5156 77.2282C11.3649 77.0512 10.1004 77.2662 9.0256 76.7352C10.2269 76.6846 11.4155 76.7225 12.6294 76.7225H12.6168ZM385.758 19.8579H385.72V19.8452C385.758 19.8452 385.758 19.8579 385.758 19.8579ZM483.858 19.8579V19.8452V19.8579ZM757.42 18.8716C757.357 18.9475 757.357 19.036 757.281 19.1245C757.231 19.036 757.167 18.9854 757.041 18.8842C757.193 18.9095 757.281 18.8463 757.42 18.8716ZM857.101 77.2282C857.101 77.0259 857.05 76.8742 857 76.7225C858.214 76.7225 859.415 76.6846 860.566 76.7352C859.554 77.2662 858.252 77.0512 857.114 77.2282H857.101ZM844.873 85.7889C844.785 85.6878 844.595 85.612 844.519 85.5108C844.519 85.3211 844.519 85.1188 844.519 84.9291C847.187 85.2073 849.855 85.5107 852.536 85.7636C850.007 85.7636 847.465 85.7889 844.886 85.7889H844.873ZM833.695 206.865C833.075 206.878 832.57 207.092 832.013 207.194C832.633 207.194 833.177 207.08 833.695 206.865ZM576.622 189.187C576.622 189.212 576.533 189.238 576.533 189.288C576.483 189.238 576.483 189.2 576.432 189.187C576.533 189.187 576.584 189.187 576.622 189.187ZM293.121 189.288C293.108 189.238 292.982 189.212 292.982 189.187C293.032 189.187 293.121 189.187 293.159 189.187C293.134 189.2 293.121 189.238 293.121 189.288ZM26.5769 93.0472C23.4662 93.0472 20.3429 93.0219 17.2196 93.0219C20.6211 92.9334 23.58 91.0367 27.1965 91.8333C27.3482 92.377 26.9056 92.6931 26.5642 93.0472H26.5769ZM112.335 19.1118C112.285 19.0233 112.247 18.9348 112.184 18.8589C112.323 18.8336 112.386 18.8969 112.525 18.8716C112.474 18.9727 112.373 19.0233 112.335 19.1118ZM253.479 4.73448C252.505 4.74712 251.557 4.7724 250.558 4.79769C251.544 4.82298 252.53 5.07589 253.479 4.73448ZM272.054 9.27399C272.054 9.2487 272.105 9.24874 272.105 9.2361C272.118 9.24874 272.067 9.2487 272.105 9.27399C272.067 9.27399 272.067 9.27399 272.054 9.27399ZM375.693 16.3678C375.756 16.3678 375.845 16.3678 375.908 16.3678C375.845 16.4058 375.756 16.4058 375.731 16.4058C375.693 16.4058 375.693 16.4058 375.693 16.3678ZM374.251 22.1593C374.428 22.0202 374.605 21.9064 374.744 21.8052C374.77 21.9064 374.669 22.0328 374.744 22.1593C374.567 22.1593 374.428 22.1593 374.251 22.1593ZM494.859 21.8052C495.049 21.9064 495.239 22.0328 495.416 22.1593C495.226 22.1593 495.036 22.1593 494.897 22.1593C494.948 22.0202 494.859 21.9064 494.859 21.8052ZM493.936 16.3678C493.936 16.4058 493.936 16.4058 493.936 16.4058C493.848 16.3679 493.822 16.4058 493.747 16.3678C493.81 16.3678 493.886 16.3678 493.936 16.3678ZM597.524 9.2361C597.524 9.24874 597.587 9.2487 597.587 9.27399C597.562 9.27399 597.562 9.27399 597.562 9.27399C597.562 9.2487 597.524 9.24874 597.524 9.2361ZM619.046 4.81034C618.072 4.78505 617.124 4.75978 616.15 4.74713C617.111 5.10119 618.06 4.84828 619.046 4.81034ZM843.065 93.0598C842.761 92.7058 842.268 92.3896 842.458 91.8459C846.074 91.0619 849.059 92.946 852.41 93.0345C849.274 93.0345 846.201 93.0598 843.052 93.0598H843.065ZM44.3305 58.6907C44.3305 58.9183 44.6213 59.0448 44.5707 59.2724C43.8247 58.3872 42.1555 58.5516 41.1819 57.9194C42.1555 58.2987 43.1418 58.6528 44.3305 58.6907ZM143.91 25.6619C143.96 25.5987 144.049 25.662 144.1 25.5987C144.15 25.624 144.15 25.6746 144.188 25.6873C144.036 25.6873 144.011 25.6619 143.91 25.6619ZM178.241 20.1361C178.292 20.0349 178.342 19.997 178.38 19.8705C178.405 19.8705 178.443 19.8832 178.481 19.8832C178.405 19.9843 178.317 20.0602 178.241 20.1361ZM228.973 16.6207C229.39 16.4564 229.719 16.5322 230.174 16.3046C230.01 16.5702 229.744 16.5702 229.542 16.8104C229.34 16.7599 229.188 16.6587 228.973 16.6207ZM282.132 14.1549C282.031 14.1549 281.968 14.1549 281.842 14.1549C281.867 14.1549 281.892 14.1297 281.892 14.1044C281.981 14.1297 282.044 14.1044 282.132 14.1044V14.1549ZM310.065 15.2425C310.204 15.1666 310.204 15.0781 310.306 15.0022C310.255 15.0781 310.293 15.1666 310.255 15.2425C310.204 15.2425 310.116 15.2425 310.065 15.2425ZM344.776 16.4943C344.776 16.4437 344.637 16.469 344.637 16.4184C344.7 16.4184 344.788 16.4184 344.852 16.4184C344.814 16.4437 344.788 16.469 344.776 16.4943ZM524.917 16.4943C524.891 16.469 524.828 16.4437 524.765 16.4184C524.891 16.4184 524.917 16.4184 525.005 16.4184C525.005 16.469 524.917 16.4437 524.917 16.4943ZM528.558 16.3552C528.558 16.6334 528.887 16.5702 528.976 16.8104C528.735 16.6334 528.52 16.5449 528.305 16.3552C528.369 16.3552 528.482 16.3679 528.558 16.3552ZM559.374 14.9896C559.437 15.0654 559.501 15.1539 559.589 15.2298C559.551 15.2298 559.501 15.2298 559.399 15.2298C559.399 15.1539 559.399 15.0654 559.374 14.9896ZM560.285 15.1793C560.044 15.1793 559.804 15.2172 559.589 15.2298C559.627 15.0401 559.867 14.9011 560.044 14.762C560.108 14.9011 560.146 15.0655 560.285 15.1793ZM587.522 14.1424V14.0917C587.61 14.0917 587.699 14.117 587.737 14.0917C587.787 14.117 587.788 14.1424 587.788 14.1424C587.699 14.1424 587.61 14.1424 587.522 14.1424ZM639.455 16.2794C639.936 16.507 640.252 16.4438 640.707 16.5955C640.467 16.6334 640.29 16.7345 640.113 16.7851C639.936 16.5449 639.632 16.5449 639.455 16.2794ZM691.274 19.8452C691.312 19.9843 691.35 20.0096 691.413 20.1108C691.325 20.0349 691.274 19.9717 691.173 19.8579C691.224 19.8579 691.224 19.8452 691.274 19.8452ZM725.757 25.6366C725.605 25.6366 725.605 25.6619 725.492 25.6619C725.517 25.6493 725.517 25.5987 725.555 25.5734C725.605 25.6366 725.707 25.5734 725.757 25.6366ZM825.084 59.2471C825.046 59.0195 825.299 58.893 825.299 58.6654C826.55 58.6275 827.524 58.2608 828.498 57.8941C827.486 58.5263 825.868 58.3619 825.084 59.2471ZM49.5149 43.0615C49.5149 43.0236 49.5149 43.0615 49.5149 43.0235C49.5149 43.0615 49.5149 43.0615 49.5149 43.0615ZM132.39 24.4733C132.403 24.448 132.441 24.4353 132.454 24.4353C132.454 24.448 132.441 24.448 132.441 24.4733C132.403 24.4733 132.403 24.4733 132.39 24.4733ZM245.98 19.5038C246.044 19.4659 246.17 19.4659 246.259 19.4153C246.259 19.4153 246.284 19.4153 246.309 19.4153C246.208 19.4153 246.081 19.5038 245.98 19.5038ZM340.704 16.7851C340.742 16.5449 341.083 16.6081 341.096 16.3299C341.185 16.3426 341.286 16.3299 341.362 16.3299C341.134 16.5196 340.906 16.6081 340.704 16.7851ZM528.963 20.3637C528.912 20.3637 528.887 20.3636 528.849 20.3257C528.887 20.3131 528.912 20.3258 528.963 20.3131C528.963 20.3258 528.963 20.3637 528.963 20.3637ZM577.798 16.3299C577.735 16.3426 577.735 16.3805 577.684 16.4058C577.684 16.3805 577.659 16.3805 577.659 16.3805C577.684 16.3299 577.735 16.3426 577.811 16.3299H577.798ZM623.421 19.4027C623.459 19.4532 623.611 19.4532 623.674 19.4912C623.548 19.4912 623.459 19.4027 623.371 19.4027C623.371 19.4027 623.371 19.4027 623.421 19.4027ZM631.565 11.7019C630.224 11.7019 628.884 11.7271 627.569 11.7271C628.896 11.7398 630.237 12.1192 631.565 11.7019ZM737.163 24.3848C737.214 24.4227 737.214 24.4354 737.277 24.4607H737.214C737.214 24.4354 737.163 24.4354 737.163 24.3848ZM820.152 43.0488C820.152 43.0488 820.152 43.0488 820.152 43.0109C820.152 43.0488 820.152 43.0109 820.152 43.0488ZM828.536 77.8353C828.346 77.6709 828.296 77.3421 828.106 77.2409C828.245 77.1524 828.409 77.1524 828.536 77.026C828.599 77.2915 828.536 77.5824 828.536 77.8353ZM160.31 39.5588C160.487 39.5841 160.665 39.4956 160.842 39.5082C160.753 39.5588 160.627 39.5588 160.563 39.6473C160.487 39.5967 160.374 39.6347 160.31 39.5715V39.5588ZM192.568 33.0972C192.403 33.1225 192.214 33.1225 192.037 33.1604C192.214 33.1098 192.366 33.1225 192.505 33.0972C192.53 33.0972 192.555 33.0972 192.568 33.0972ZM292.008 16.3805C291.97 16.3805 291.958 16.3805 291.932 16.4058C291.932 16.3805 291.882 16.3426 291.882 16.3299C291.92 16.3426 291.97 16.3299 292.021 16.3805H292.008ZM340.691 20.3637C340.666 20.3637 340.691 20.3258 340.666 20.3131C340.717 20.3258 340.742 20.3131 340.818 20.3257C340.793 20.3636 340.742 20.3637 340.691 20.3637ZM677.567 33.1604C677.39 33.1225 677.251 33.1225 677.061 33.0972H677.112C677.302 33.1225 677.415 33.1098 677.567 33.1604ZM709.344 39.5588C709.293 39.622 709.154 39.5841 709.104 39.6347C709.015 39.5588 708.863 39.5588 708.826 39.4956C708.977 39.4829 709.154 39.5714 709.344 39.5461V39.5588ZM89.6122 38.3702C89.5996 38.3702 89.5743 38.3702 89.5743 38.3702C89.5743 38.3702 89.5996 38.3702 89.6122 38.3702ZM112.727 31.7442C112.677 31.643 112.639 31.5545 112.601 31.466C112.626 31.4913 112.702 31.466 112.765 31.4913C112.727 31.5545 112.753 31.6557 112.727 31.7442ZM114.649 36.0435C114.498 36.0056 114.384 36.0056 114.27 36.0056C114.371 35.9929 114.51 35.955 114.662 35.9297C114.662 35.955 114.624 35.9929 114.649 36.0561V36.0435ZM272.345 24.448C272.307 24.4859 272.244 24.5239 272.193 24.5365C272.206 24.5365 272.206 24.5365 272.206 24.5239C272.231 24.4859 272.257 24.486 272.295 24.4733C272.32 24.448 272.333 24.4733 272.333 24.448H272.345ZM597.398 24.5492C597.36 24.5239 597.309 24.4859 597.259 24.448C597.259 24.4733 597.297 24.448 597.297 24.4733C597.347 24.486 597.385 24.5239 597.385 24.5239C597.385 24.5365 597.385 24.5365 597.385 24.5492H597.398ZM756.877 31.7442C756.877 31.643 756.877 31.5545 756.839 31.4913C756.877 31.466 756.99 31.4913 757.028 31.466C756.99 31.5545 756.94 31.6557 756.877 31.7442ZM780.068 38.3702C780.017 38.3702 780.017 38.3702 780.017 38.3702C780.017 38.3702 780.017 38.3702 780.068 38.3702ZM110.906 35.9929C110.906 35.9676 110.906 35.955 110.906 35.955C110.906 35.955 110.919 35.9676 110.919 35.9929H110.906ZM259.22 26.2942C258.739 26.1298 258.246 26.016 257.753 25.9275C258.36 25.839 258.79 25.9907 259.409 25.8769C259.27 26.016 259.333 26.1298 259.22 26.2942ZM758.748 35.955C758.748 35.955 758.748 35.9676 758.748 35.9929C758.697 35.9929 758.697 35.9929 758.697 35.9929C758.697 35.9676 758.697 35.955 758.748 35.955ZM610.232 25.8769C610.877 25.9907 611.282 25.839 611.864 25.9275C611.37 26.0034 610.915 26.1298 610.422 26.2942C610.27 26.1298 610.359 26.016 610.232 25.8769ZM773.505 26.193C773.505 26.193 773.53 26.1804 773.53 26.1551C773.505 26.3195 773.568 26.4333 773.618 26.5724C773.568 26.5724 773.53 26.5471 773.505 26.5471C773.505 26.446 773.505 26.3195 773.505 26.193ZM754.967 35.917C755.094 35.9423 755.233 35.9803 755.372 35.9929C755.233 35.9929 755.094 35.9929 754.992 36.0309C754.992 35.9803 754.967 35.9423 754.967 35.9044V35.917ZM96.1497 26.5345C96.1244 26.5345 96.0738 26.5598 96.0359 26.5598C96.0738 26.4207 96.1244 26.3068 96.0991 26.1425C96.1244 26.1678 96.137 26.1804 96.1497 26.2057C96.1497 26.2942 96.1497 26.4206 96.1497 26.5218V26.5345ZM309.597 14.7366C309.8 14.8757 310.04 15.0148 310.053 15.2045C309.825 15.1919 309.623 15.1539 309.395 15.1539C309.509 15.0528 309.547 14.8757 309.597 14.7366ZM238.027 11.7019C239.38 12.1192 240.733 11.7398 242.06 11.7271C242.06 11.7271 242.06 11.7271 242.048 11.7271C240.695 11.7271 239.367 11.7019 238.027 11.7019ZM41.0807 77.0386C41.2198 77.1651 41.3968 77.165 41.5486 77.2536C41.3083 77.3421 41.2704 77.6835 41.106 77.8479C41.106 77.6077 41.0175 77.3168 41.0807 77.0386ZM258.727 11.6007C258.12 11.411 257.563 11.2087 257.007 11.0443C257.007 11.0443 257.007 11.0696 257.007 11.0443C257.475 11.3857 257.93 11.7524 258.727 11.6007ZM163.042 192.614C163.042 192.614 163.042 192.614 163.054 192.614C163.042 192.614 163.054 192.614 163.042 192.614ZM706.613 192.652C706.613 192.614 706.613 192.614 706.613 192.614C706.613 192.614 706.613 192.614 706.613 192.652ZM868.987 97.0936C868.684 96.5246 868.127 96.4234 867.659 96.1073C868.304 95.7406 868.797 95.3612 867.9 94.5646C867.343 94.0461 866.521 94.5772 865.725 94.868C865.029 94.7037 864.397 94.5772 863.765 94.4255C862.829 93.376 861.413 93.0345 859.807 93.0472C857.531 92.1747 855.331 91.3401 853.105 90.4676C852.802 90.0883 852.157 90.0377 851.727 89.7722C852.03 89.6583 852.372 89.5445 852.688 89.456C858.125 91.2896 863.575 91.4665 869 89.4054C868.051 88.1788 866.016 88.3938 864.599 87.7869C864.081 87.4834 863.588 87.1167 862.753 87.1167C861.413 86.8258 860.679 85.6878 859.01 85.7511C857.088 85.8269 855.141 85.7511 853.181 85.7511C853.396 85.7258 853.674 85.5866 853.674 85.5487C853.586 85.2579 853.396 84.9544 853.244 84.7015C853.434 83.8669 854.218 83.7025 855.103 83.5761C859.01 83.7278 863.031 83.6898 867.356 82.3621C862.88 80.5159 859.2 81.439 855.596 81.4896C854.686 81.4896 853.763 81.4517 852.839 81.4391C851.423 80.8953 849.691 80.478 849.729 78.9859C849.729 78.9986 849.779 78.9986 849.779 78.9986C849.779 78.9859 849.779 78.9859 849.779 78.9227H849.843C851.626 78.6572 853.586 79.3021 855.356 78.9227C857.619 78.9227 859.82 78.9227 861.957 78.9227C863.714 78.9101 865.333 78.556 865.143 76.9628C864.966 75.6982 863.474 75.6223 862.058 75.6603C859.933 75.6603 857.91 75.2177 855.874 74.851C854.951 74.4084 853.978 74.0164 853.194 73.5359C852.979 73.3842 852.839 73.1945 852.599 73.0554C855.811 72.3979 859.68 74.7372 862.412 71.93C862.639 71.4748 862.905 71.0069 863.221 70.5517C863.436 70.4 863.626 70.2609 863.841 70.0839C863.777 70.0333 863.664 69.9195 863.588 69.8309C863.626 69.7677 863.727 69.6287 863.777 69.5401C863.841 68.0733 862.614 67.479 860.768 67.2893C860.717 67.2893 860.717 67.3019 860.692 67.3019C860.717 67.2893 860.717 67.3019 860.768 67.2893C860.819 66.5685 860.819 65.8477 860.856 65.1396C865.004 64.8235 862.614 63.6728 862.02 62.2186C861.413 60.7518 860.528 60.0816 859.44 59.8414C859.339 58.1343 857.771 56.4146 856.38 54.7075C864.182 50.3829 856.38 48.562 853.244 45.9319C856.431 43.327 859.25 46.463 863.664 45.6537C857.935 41.9108 855.874 36.6757 848.313 34.7284C847.023 34.0456 845.771 33.3754 844.494 32.6799C840.928 31.2131 837.615 28.9876 833.417 32.0603C830.976 33.8559 829.56 28.9496 826.69 31.3522C821.859 31.9086 818.85 27.3816 813.615 29.0255C813.311 29.0255 813.374 29.0761 813.134 29.0635C813.425 27.9507 813.235 26.8632 811.073 25.8516C811.098 24.9664 811.149 24.0561 811.225 23.1583C813.615 20.5787 811.743 19.213 808.367 18.3405C805.332 16.4438 801.64 17.7968 798.264 17.3668C798.314 16.7219 798.34 16.0518 798.377 15.4069C800.843 15.2551 803.448 15.7609 806.559 14.0917C799.187 10.9178 792.03 12.0306 785.201 11.8789C785.201 11.8789 785.201 11.8789 785.201 11.8915C785.201 11.8789 785.201 11.8789 785.201 11.8789C783.975 11.8409 782.723 11.8283 781.484 11.803C779.448 11.7271 777.425 11.6386 775.401 11.5501C774.289 11.9294 773.176 12.2709 772.089 12.6376C773.1 12.7893 774.124 12.9158 775.098 13.0675C774.58 13.7124 774.023 14.3573 773.53 15.0149C772.367 15.116 771.254 15.2551 770.141 15.4069C767.878 15.508 765.222 14.117 763.414 16.2287L763.363 16.0517C760.291 16.2667 757.648 17.8094 754.259 17.3668C750.428 16.8357 749.327 18.821 748.581 20.958C748.126 20.8947 747.608 20.8189 747.165 20.743C745.167 19.0359 746.04 16.0644 742.234 15.2172C738.263 15.3436 734.432 14.8884 730.676 14.0791C727.793 14.0791 724.986 14.0791 721.673 14.0791C723.468 15.685 725.631 14.9264 727.237 15.4069C728.944 16.115 730.676 16.8231 732.358 17.5439C731.928 17.6324 731.473 17.6703 731.068 17.6323C730.297 17.6323 729.525 17.6071 728.754 17.5944C726.212 18.429 722.432 15.3563 720.737 18.8716C722.824 21.4259 720.497 21.9443 717.614 22.1466C715.768 18.7577 711.987 21.9822 709.458 20.958C708.851 20.1993 708.219 19.4533 707.624 18.7199C702.124 19.1751 702.402 16.6839 702.933 14.0791C703.603 13.9273 704.678 13.9274 705.045 13.5733C705.942 12.6882 705.133 12.3973 703.881 12.3973C701.921 12.3847 700.202 10.9305 697.976 11.8283C695.763 12.9411 694.663 15.6976 690.756 14.2435C687.658 13.3204 684.522 13.1813 681.386 14.0538C681.006 13.8642 680.602 13.8515 680.185 13.9653C678.313 12.3215 675.67 12.9537 673.268 12.8399C673.192 12.5617 673.053 12.2709 672.952 11.9547C672.876 10.8925 677.428 10.0074 673.875 9.09694C669.462 7.95889 664.277 4.72184 660.003 9.48901C659.459 9.93159 658.903 10.3741 658.347 10.8167C654.427 11.0064 656.69 5.94841 651.809 6.96001C651.847 5.20235 651.544 3.67225 648.344 3.58374C647.902 2.21808 651.076 -0.791426 645.322 0.194885C641.402 0.498365 638.115 1.29501 638.595 4.78503C637.495 5.16438 636.433 5.54369 635.32 5.93569C632.184 4.49416 630.338 1.25705 625.368 2.54684C621.954 2.5089 618.414 1.87667 615.594 3.91252C613.975 4.16542 612.407 4.44359 610.839 4.68385C605.301 1.04208 605.364 1.04213 600.61 3.62171C600.256 3.82403 599.598 3.76076 599.042 3.81134C596.892 3.81134 594.704 3.824 592.555 3.824C590.62 3.5711 588.736 3.36877 587.206 4.53211C583.058 4.54476 578.911 4.59536 574.801 4.63329C574.763 4.63329 574.763 4.63329 574.763 4.63329C574.662 3.67227 571.046 4.27922 572.828 2.48363C574.03 2.33189 576.002 2.33188 575.294 1.1306C574.245 -0.576473 572.474 0.232807 571.058 1.1306C569.983 1.57318 568.921 2.00316 567.859 2.44573C563.952 3.57114 560.032 4.68388 556.099 5.82193C555.113 5.91044 554.089 6.01157 553.077 6.10008C551.977 6.10008 550.839 6.0875 549.701 6.0875C545.743 6.04957 541.772 6.11273 537.802 5.94835C534.299 5.80925 533.085 7.0738 533.06 9.31196C532.086 9.31196 531.062 9.31196 530.05 9.31196C529.507 8.67971 528.95 8.06011 528.369 7.41521C526.143 7.1876 523.564 5.54373 522.135 8.26241C521.452 10.0833 517.608 8.89464 517.064 10.8546C514.345 11.0569 513.865 12.549 513.372 14.0159C511.26 15.4574 509.224 13.8136 507.112 13.9527C502.042 9.93155 494.897 12.4732 488.941 11.1834C488.486 11.0949 486.311 11.3984 487.07 12.41C487.563 13.1181 489.131 13.3963 490.244 13.8641C488.486 14.6861 486.83 14.5596 484.857 14.117C482.594 13.586 480.419 13.8136 480.533 16.1529C481.177 17.2403 482.442 17.5185 483.934 17.5565C483.049 16.7472 482.037 16.1529 480.533 16.1529C479.559 16.1529 478.623 16.1655 477.637 16.1655C469.392 12.8778 466.218 13.194 465.624 17.3795C464.575 17.5186 463.538 17.6071 462.513 17.7083C456.305 16.7346 450.096 17.1771 443.913 17.6703C443.065 16.2035 441.839 14.8884 439.082 14.2435C437.223 13.8009 436.073 14.2814 434.897 14.724C433.721 14.2814 432.583 13.8009 430.699 14.2435C427.98 14.8884 426.715 16.2035 425.906 17.6703C419.685 17.1771 413.489 16.7346 407.28 17.7083C406.256 17.6071 405.219 17.5059 404.182 17.3795C403.562 13.194 400.363 12.8652 392.144 16.1655C391.17 16.1655 390.235 16.1529 389.299 16.1529C387.756 16.1529 386.732 16.7598 385.872 17.5565C387.364 17.5185 388.654 17.2403 389.299 16.1529C389.387 13.8136 387.25 13.586 384.949 14.117C382.989 14.5596 381.295 14.6734 379.562 13.8641C380.688 13.3963 382.281 13.1181 382.774 12.41C383.495 11.3984 381.358 11.0822 380.89 11.1834C374.921 12.4732 367.802 9.93155 362.719 13.9527C360.62 13.8136 358.546 15.47 356.422 14.0159C355.941 12.5617 355.461 11.0569 352.767 10.8546C352.198 8.89464 348.38 10.0833 347.659 8.26241C346.255 5.54373 343.663 7.1876 341.45 7.41521C340.894 8.06011 340.325 8.69236 339.73 9.31196C338.757 9.31196 337.77 9.31196 336.772 9.31196C336.708 7.0738 335.558 5.8219 331.992 5.94835C328.046 6.11273 324.051 6.03692 320.105 6.0875C318.98 6.0875 317.855 6.10008 316.729 6.10008C315.743 6.01157 314.719 5.91044 313.72 5.82193C309.8 4.68388 305.867 3.57114 301.922 2.44573C300.898 2.00316 299.848 1.57318 298.773 1.1306C297.319 0.232807 295.549 -0.576473 294.537 1.1306C293.816 2.33188 295.764 2.33189 296.965 2.48363C298.773 4.29186 295.119 3.67227 295.018 4.63329C290.87 4.59536 286.748 4.54476 282.6 4.53211C281.045 3.36877 279.161 3.5711 277.277 3.824C275.077 3.824 272.927 3.81134 270.752 3.81134C270.221 3.76076 269.563 3.82403 269.184 3.62171C264.455 1.04213 264.455 1.04208 258.979 4.68385C257.386 4.44359 255.806 4.16542 254.225 3.91252C251.392 1.87667 247.852 2.5089 244.412 2.54684C239.43 1.2444 237.571 4.49416 234.486 5.93569C233.386 5.54369 232.298 5.16438 231.198 4.78503C231.641 1.29501 228.404 0.498365 224.471 0.194885C218.705 -0.791426 221.917 2.21808 221.436 3.58374C218.263 3.65961 217.934 5.20235 218.01 6.96001C213.103 5.94841 215.379 10.9938 211.459 10.8167C210.903 10.3741 210.334 9.93159 209.79 9.48901C205.491 4.72184 200.319 7.95889 195.906 9.09694C192.391 10.0074 196.956 10.9052 196.855 11.9547C196.715 12.2582 196.589 12.5617 196.475 12.8399C194.085 12.9411 191.455 12.3215 189.558 13.9653C189.154 13.8642 188.787 13.8642 188.42 14.0538C185.259 13.1813 182.123 13.3204 179.025 14.2435C175.105 15.6976 174.018 12.9411 171.767 11.8283C169.617 10.9305 167.897 12.3847 165.887 12.3973C164.66 12.3973 163.826 12.6882 164.761 13.5733C165.128 13.94 166.14 13.94 166.873 14.0791C167.354 16.6839 167.607 19.1751 162.144 18.7199C161.537 19.4533 160.955 20.1866 160.336 20.958C157.807 21.9822 154.001 18.7577 152.142 22.1466C149.259 21.9443 146.957 21.4259 148.993 18.8716C147.311 15.3689 143.531 18.429 140.964 17.5944C140.23 17.6071 139.484 17.6323 138.713 17.6323C138.27 17.6576 137.828 17.6324 137.385 17.5439C139.092 16.8231 140.799 16.115 142.494 15.4069C144.15 14.9264 146.274 15.685 148.057 14.0791C144.795 14.0791 141.925 14.0791 139.092 14.0791C135.311 14.8884 131.48 15.331 127.547 15.2172C123.678 16.0644 124.563 19.0359 122.59 20.743C122.11 20.8189 121.642 20.8947 121.149 20.958C120.453 18.8336 119.303 16.8357 115.484 17.3668C112.095 17.8094 109.452 16.2667 106.354 16.0517H106.342V16.2287C106.342 16.2287 106.342 16.2287 106.304 16.2287C104.508 14.1297 101.865 15.508 99.5512 15.4069C98.4511 15.2551 97.3383 15.1287 96.2382 15.0149C95.7071 14.3447 95.1887 13.6997 94.6449 13.0675C95.6439 12.9158 96.6302 12.7893 97.6671 12.6376C96.529 12.2709 95.4669 11.9294 94.3667 11.5501C92.3309 11.6512 90.2824 11.7271 88.2719 11.803C87.02 11.8283 85.7555 11.8409 84.5289 11.8789C77.688 12.0306 70.5688 10.9178 63.1968 14.0917C66.2695 15.7482 68.925 15.2551 71.3149 15.4069C71.3528 16.0518 71.4414 16.7219 71.4666 17.3668C68.1284 17.7968 64.4487 16.4438 61.3886 18.3405C57.9744 19.213 56.1282 20.5787 58.5308 23.1583C58.5687 24.0561 58.6193 24.9664 58.6952 25.8516C58.6952 25.8516 58.6952 25.8516 58.6825 25.8516C56.5329 26.8632 56.3432 27.9507 56.6214 29.0635C56.3811 29.0761 56.3938 29.0255 56.1409 29.0255C50.8932 27.3816 47.8711 31.9212 43.0407 31.3522C40.2082 28.9623 38.7919 33.8559 36.3388 32.0603C32.1533 28.9876 28.7897 31.2004 25.2618 32.6799C23.9973 33.3754 22.6948 34.0456 21.4177 34.7284C13.8939 36.6884 11.8075 41.9108 6.06666 45.6537C10.5177 46.4756 13.3122 43.327 16.4861 45.9319C13.3502 48.562 5.57351 50.3829 13.3502 54.7075C11.9466 56.4146 10.4165 58.1343 10.3027 59.8414C9.20262 60.0816 8.34277 60.7518 7.72317 62.2186C7.16679 63.6602 4.73894 64.8109 8.8865 65.1396C8.91179 65.8477 8.93708 66.5685 8.96237 67.2893C7.12884 67.479 5.88963 68.0607 5.97815 69.5401C6.04137 69.6287 6.07931 69.7677 6.15518 69.8309C6.06666 69.9321 5.95286 70.0333 5.86435 70.0839C6.09196 70.2609 6.33221 70.4 6.54718 70.5517C6.81272 71.0069 7.07827 71.4748 7.35646 71.93C10.0498 74.7372 13.9319 72.3979 17.1184 73.0554C16.8781 73.2072 16.777 73.3842 16.5367 73.5359C15.7274 74.0164 14.7411 74.4084 13.8939 74.851C11.8454 75.2303 9.77165 75.6603 7.65994 75.6603C6.2437 75.6223 4.80216 75.6856 4.62513 76.9628C4.39752 78.556 6.05402 78.8974 7.77374 78.9227C9.92339 78.9227 12.1489 78.9227 14.3871 78.9227C16.1321 79.3021 18.1047 78.6572 19.913 78.9227C19.9256 78.9227 19.9509 78.9227 19.9762 78.9227C19.9762 78.9859 19.9256 78.9859 19.9256 78.9986C19.9509 78.9986 19.9762 78.9986 20.0015 78.9859C20.0141 80.4654 18.345 80.8827 16.8781 81.4391C15.993 81.4517 15.0699 81.4896 14.1468 81.4896C10.5303 81.439 6.82536 80.5159 2.39961 82.3621C6.69891 83.7025 10.72 83.7278 14.64 83.5761C15.5125 83.6899 16.2965 83.8669 16.4735 84.7015C16.3218 84.9544 16.1447 85.2452 16.0942 85.5487C16.0562 85.5866 16.3344 85.7258 16.562 85.7511C14.6147 85.7511 12.6674 85.8269 10.72 85.7511C9.03824 85.6878 8.35541 86.8258 6.98975 87.1167C6.14254 87.1167 5.68731 87.4707 5.15622 87.7869C3.75263 88.3938 1.71678 88.1788 0.730469 89.4054C6.16782 91.4665 11.6052 91.2896 17.0678 89.456C17.4092 89.5572 17.7127 89.6583 18.0162 89.7722C17.5989 90.0377 16.9414 90.0883 16.6252 90.4676C14.425 91.3401 12.1868 92.1747 9.96133 93.0472C8.34277 93.0345 6.88859 93.376 5.9655 94.4255C5.32061 94.5772 4.67571 94.7037 4.03082 94.868C3.22154 94.5772 2.37432 94.0335 1.81794 94.5646C0.93279 95.3486 1.42595 95.7406 2.07085 96.1073C1.62827 96.4234 1.0213 96.5246 0.730469 97.0936C1.60297 97.0556 2.04555 96.7143 2.82954 96.651C3.31005 96.866 3.91701 97.0177 3.99288 97.3592C3.41121 97.7385 1.12246 97.1821 2.62722 98.6616C5.23209 99.787 8.01399 99.8755 10.8465 99.8249C9.06353 100.419 7.35646 101.014 5.21945 101.722C9.60727 102.619 12.3512 100.988 15.3734 100.015C15.4493 100.015 15.5125 99.9514 15.5757 99.9514C17.131 99.9387 18.6864 99.7743 20.1785 100.027C16.8908 102.278 12.0478 99.8881 8.68418 101.987C7.74845 102.088 6.81272 102.227 5.86435 102.341C7.74845 103.366 9.59463 102.733 11.4661 102.291C9.65785 102.683 7.83697 102.999 5.86435 102.341C4.70101 106.198 4.701 106.198 12.9708 107.159C12.7685 109.852 8.4945 108.638 7.14149 110.181C5.42177 112.95 8.41864 112.495 10.5051 112.622C16.9414 112.976 23.3777 113.279 29.8013 113.608C31.8625 113.709 34.2144 113.153 35.5169 114.923C35.4916 116.491 35.4789 118.059 35.4663 119.614C34.5938 120.563 34.7455 121.144 35.0237 121.612C33.7086 122.624 33.089 123.901 32.6591 125.267C30.4209 127.303 32.4568 127.555 34.7455 127.72C35.6686 129.718 29.7634 134.434 38.1597 133.208C38.3241 133.322 38.0838 133.423 38.3241 133.536C38.4758 133.638 38.6402 133.751 38.8172 133.903C38.7161 136.862 31.8245 137.861 34.5812 141.566C33.519 142.186 31.344 143.008 33.9236 143.665C37.9827 144.765 37.9447 145.739 35.1375 147.724C34.5432 148.179 35.5801 149.747 35.8709 150.772C33.9363 152.542 34.8593 154.59 34.7455 156.55C32.1786 158.548 29.6243 160.572 27.0574 162.569C26.7539 162.822 26.5516 163.138 26.4631 163.493C23.2259 163.404 21.0004 164.997 18.4714 166.047C17.3839 166.515 14.9435 166.565 15.778 168.184C16.4356 169.398 18.1932 169.562 19.9003 169.549C17.1058 171.408 12.1489 172.534 15.1458 176.416C14.7917 177.377 12.3512 178.957 16.3091 178.679C18.0668 178.527 19.7233 177.895 21.4556 177.503C23.5168 178.641 21.0131 180.07 21.8476 181.297C19.4198 182.726 16.992 184.154 14.5768 185.596C19.2807 185.103 20.9119 189.744 24.9583 188.024C26.5516 190.477 19.2681 192.26 23.9593 194.941C23.2133 195.333 22.404 195.75 21.6453 196.129C18.4461 195.94 15.8665 196.964 11.719 198.456C16.7264 198.456 19.9762 198.456 23.2259 198.456L23.4156 198.405C23.0616 200.024 24.2122 200.745 26.4378 200.795C26.5389 201.187 26.6527 201.567 26.7665 201.933C24.5663 203.135 22.3408 204.323 20.1532 205.537C17.9403 204.323 15.7148 204.172 13.4008 205.373C11.1626 205.55 8.77269 204.892 5.61144 206.498C8.92443 206.498 11.2132 206.498 13.4766 206.498C15.0826 206.915 13.6537 209.204 16.6758 208.863C18.9393 208.648 19.8118 207.813 20.0015 206.397C21.9235 207.535 24.2249 207.624 26.5389 207.662C27.0068 208.117 25.6791 210.001 28.2839 208.787C28.7644 208.825 29.2576 208.888 29.7002 208.989C29.7002 209.659 29.7381 210.304 29.7381 210.975C28.7392 211.139 27.7781 211.291 26.8045 211.442C24.4778 211.885 22.1511 212.353 18.4208 213.074C22.3787 213.466 24.8571 214.174 26.5769 212.239C29.8266 212.239 33.0511 212.239 36.2756 212.239C35.5422 211.316 34.2271 211.227 32.912 211.076C32.9626 211.05 33.0638 211.076 33.089 211.038C33.9236 211.771 35.441 211.569 36.2756 212.239C40.2588 212.416 42.3199 215.919 47.4411 214.819C53.8901 213.377 60.8575 213.162 66.6236 210.279C69.4308 210.241 72.2506 210.178 74.7164 209.04C78.6237 209.09 82.6195 209.482 86.1601 207.826C87.6902 207.649 89.2455 207.472 90.8388 207.333C95.8462 207.232 101.043 207.775 105.621 205.664C108.833 205.221 112.158 206.258 115.294 205.158C120.782 204.778 126.27 204.349 131.745 203.969C133.073 204.058 134.287 203.666 135.564 203.577C136.652 203.59 137.878 203.337 138.978 203.198C141.115 203.286 143.328 203.615 145.136 202.389C146.072 202.287 146.995 202.161 147.918 202.034C155.48 203.274 162.991 204.475 170.047 200.884C172.513 200.934 174.941 200.985 177.381 200.985C185.651 201.225 193.529 199.619 201.521 198.646C202.987 198.57 204.454 198.431 205.908 198.329C208.893 197.862 209.386 200.833 212.206 200.593C214.14 199.025 218.402 205.879 219.084 199.67C232.185 196.635 245.222 196.825 258.322 199.695C259.131 200.719 256.198 202.717 259.131 202.844C261.508 202.945 261.129 201.073 260.56 199.771C261.989 199.67 263.468 199.607 264.935 199.518C267.73 199.594 270.524 199.683 273.306 199.758C275.519 199.328 278.326 200.302 279.945 198.393C283.802 198.696 287.064 197.672 290.175 196.268C293.488 199.392 294.398 197.482 295.056 195.092C296.017 195.371 296.99 195.623 297.989 195.902C298.546 195.99 299.102 196.079 299.633 196.192C299.886 197.659 300.329 198.962 302.946 197.482C306.917 197.862 304.742 194.043 307.916 193.853C309.003 193.777 310.078 193.701 311.191 193.626C312.24 193.664 313.302 193.664 314.402 193.689C316.792 194.435 312.847 196.091 315.566 196.976C317.589 195.548 318.917 193.12 322.786 193.689L323.557 193.727L324.329 193.626C325.48 194.043 326.643 194.435 327.806 194.865C328.476 197.596 322.988 195.118 323.229 197.647C324.974 198.962 327.187 198.203 329.26 198.241C333.56 198.658 336.784 197.406 339.174 194.979C341.956 193.701 344.447 193.449 346.04 196.041C346.344 200.542 351.541 197.293 353.893 198.507C353.564 199.404 352.123 201.276 355.081 200.201C357.446 199.392 359.393 198.077 362.239 198.216C364.907 198.241 367.056 197.508 368.865 196.167C380.106 195.813 391.309 195.864 402.171 192.753C402.981 192.513 403.853 192.677 404.726 192.538C405.004 192.538 405.269 192.513 405.586 192.538C410.353 193.183 415.082 193.967 419.925 194.334C420.292 194.346 421.594 194.637 422.72 194.435C423.402 194.523 424.111 194.599 424.806 194.675C425.413 194.27 425.641 193.714 425.818 193.158C425.287 193.6 424.819 194.055 424.806 194.675C426.412 194.827 428.03 194.966 429.611 195.118C429.75 196.243 428.802 198.595 432.039 196.205C432.848 195.598 433.86 195.472 434.871 195.269C435.883 195.472 436.907 195.611 437.729 196.205C440.941 198.595 439.98 196.243 440.119 195.118C441.7 194.966 443.331 194.827 444.937 194.675C445.62 194.599 446.315 194.523 446.998 194.435C448.098 194.637 449.451 194.346 449.818 194.334C454.61 193.98 459.403 193.183 464.157 192.538C464.41 192.513 464.752 192.538 465.03 192.538C465.864 192.677 466.737 192.513 467.559 192.753C478.396 195.851 489.586 195.813 500.891 196.167C502.699 197.508 504.849 198.241 507.492 198.216C510.35 198.064 512.272 199.379 514.636 200.201C517.582 201.276 516.204 199.392 515.825 198.507C518.215 197.305 523.386 200.542 523.665 196.041C525.271 193.461 527.762 193.714 530.518 194.979C532.984 197.419 536.158 198.658 540.495 198.241C542.506 198.216 544.782 198.962 546.527 197.647C546.767 195.118 541.267 197.596 541.911 194.865C543.075 194.435 544.251 194.03 545.414 193.626L546.198 193.727L546.932 193.689C550.788 193.132 552.141 195.548 554.152 196.976C556.87 196.091 552.963 194.435 555.353 193.689C556.428 193.664 557.465 193.664 558.552 193.626C559.64 193.701 560.702 193.777 561.802 193.853C564.976 194.043 562.814 197.849 566.784 197.482C569.364 198.962 569.832 197.672 570.11 196.192C570.654 196.066 571.21 195.99 571.766 195.902C572.74 195.623 573.688 195.371 574.675 195.092C575.32 197.482 576.243 199.404 579.556 196.268C582.679 197.672 585.954 198.709 589.785 198.393C591.391 200.302 594.186 199.328 596.411 199.758C599.231 199.683 602 199.594 604.808 199.518C606.224 199.607 607.716 199.683 609.183 199.771C608.563 201.086 608.209 202.958 610.612 202.844C613.52 202.73 610.612 200.732 611.383 199.695C624.483 196.812 637.571 196.635 650.621 199.67C651.303 205.879 655.539 199.025 657.512 200.593C660.332 200.833 660.838 197.862 663.797 198.329C665.251 198.431 666.743 198.57 668.172 198.646C676.189 199.619 684.054 201.225 692.324 200.985C694.764 200.972 697.205 200.934 699.645 200.884C706.714 204.475 714.276 203.274 721.787 202.034C722.748 202.161 723.671 202.275 724.581 202.389C726.377 203.602 728.602 203.286 730.765 203.198C731.839 203.337 733.066 203.59 734.179 203.577C735.405 203.653 736.619 204.058 737.947 203.969C743.448 204.361 748.935 204.791 754.423 205.158C757.547 206.258 760.91 205.221 764.097 205.664C768.662 207.775 773.871 207.232 778.892 207.333C780.46 207.484 782.015 207.649 783.583 207.826C787.085 209.482 791.094 209.09 794.963 209.04C797.467 210.191 800.262 210.241 803.069 210.279C808.835 213.149 815.802 213.364 822.251 214.819C827.36 215.919 829.421 212.403 833.391 212.239C836.667 212.239 839.891 212.239 843.115 212.239C844.823 214.161 847.301 213.453 851.259 213.074C847.541 212.353 845.24 211.885 842.901 211.442C841.927 211.291 840.966 211.139 839.98 210.975C839.98 210.304 839.98 209.659 839.98 208.989C840.435 208.901 840.903 208.825 841.396 208.787C844.026 210.001 842.711 208.117 843.153 207.662C845.48 207.624 847.781 207.522 849.653 206.397C849.881 207.813 850.766 208.648 853.017 208.863C856.077 209.192 854.648 206.903 856.216 206.498C858.479 206.498 860.781 206.498 864.094 206.498C860.958 204.892 858.555 205.55 856.304 205.373C853.99 204.172 851.739 204.311 849.577 205.537C847.352 204.336 845.151 203.147 842.938 201.933C843.014 201.567 843.153 201.187 843.255 200.795C845.505 200.745 846.618 200.024 846.277 198.405L846.466 198.456C849.691 198.456 852.966 198.456 858.011 198.456C853.801 196.951 851.259 195.94 848.034 196.129C847.263 195.737 846.517 195.32 845.733 194.941C850.399 192.26 843.115 190.477 844.772 188.024C848.793 189.731 850.399 185.09 855.141 185.596C852.713 184.167 850.31 182.738 847.845 181.297C848.679 180.07 846.163 178.629 848.275 177.503C849.982 177.895 851.638 178.527 853.383 178.679C857.341 178.957 854.913 177.377 854.534 176.416C857.531 172.534 852.612 171.408 849.843 169.549C851.499 169.562 853.307 169.398 853.94 168.184C854.774 166.565 852.334 166.515 851.221 166.047C848.742 164.985 846.53 163.391 843.267 163.493C843.217 163.138 842.976 162.822 842.66 162.569C840.131 160.559 837.552 158.548 835.01 156.55C834.871 154.59 835.807 152.542 833.872 150.772C834.125 149.747 835.2 148.179 834.605 147.724C831.786 145.739 831.786 144.765 835.794 143.665C838.412 143.008 836.211 142.173 835.136 141.566C837.893 137.861 830.976 136.862 830.913 133.903C831.103 133.751 831.216 133.65 831.406 133.536C831.646 133.423 831.406 133.322 831.545 133.208C839.992 134.434 834.049 129.718 835.01 127.72C837.261 127.555 839.297 127.303 837.071 125.267C836.667 123.901 836.022 122.637 834.681 121.612C835.01 121.144 835.149 120.563 834.277 119.614C834.277 118.046 834.239 116.478 834.239 114.923C835.465 113.153 837.868 113.722 839.904 113.608C846.353 113.279 852.814 112.976 859.225 112.622C861.299 112.495 864.296 112.95 862.589 110.181C861.211 108.638 856.974 109.84 856.785 107.159C865.029 106.198 865.029 106.198 863.828 102.341C861.906 102.999 860.072 102.67 858.264 102.291C860.11 102.733 862.007 103.378 863.828 102.341C862.905 102.24 862.007 102.101 861.033 101.987C857.72 99.9008 852.827 102.278 849.564 100.027C851.019 99.7743 852.599 99.9387 854.117 99.9514C854.205 99.9514 854.256 100.015 854.357 100.015C857.341 100.988 860.11 102.619 864.536 101.722C862.386 101.014 860.667 100.407 858.871 99.8249C861.666 99.8755 864.473 99.787 867.116 98.6616C868.646 97.1947 866.344 97.7385 865.725 97.3592C865.826 97.0051 866.408 96.866 866.926 96.651C867.659 96.7143 868.127 97.0556 868.987 97.0936Z" fill="#DCA934"/>
</svg>
