<svg width="22" height="21" viewBox="0 0 22 21" fill="none" xmlns="http://www.w3.org/2000/svg">
<path d="M21.306 7.22084L14.8686 6.28528L11.9909 0.451311C11.9123 0.291581 11.783 0.162275 11.6233 0.0836778C11.2227 -0.114084 10.7359 0.0507175 10.5356 0.451311L7.65791 6.28528L1.22052 7.22084C1.04304 7.2462 0.880777 7.32987 0.756542 7.45664C0.606349 7.61101 0.523586 7.81869 0.526439 8.03405C0.529291 8.24942 0.617526 8.45483 0.771755 8.60517L5.42929 13.1461L4.32893 19.5581C4.30312 19.7073 4.31963 19.8607 4.37657 20.0009C4.43352 20.1412 4.52862 20.2627 4.6511 20.3516C4.77358 20.4406 4.91853 20.4935 5.06952 20.5042C5.22051 20.515 5.3715 20.4832 5.50536 20.4126L11.2633 17.3853L17.0212 20.4126C17.1784 20.4962 17.3609 20.5241 17.5359 20.4937C17.977 20.4176 18.2737 19.9993 18.1976 19.5581L17.0972 13.1461L21.7548 8.60517C21.8815 8.48094 21.9652 8.31867 21.9906 8.1412C22.059 7.6975 21.7497 7.28676 21.306 7.22084Z" fill="#DF8600"/>
</svg>
